<svg xmlns="http://www.w3.org/2000/svg" aria-hidden="true" style="position:absolute;width:0;height:0;overflow:hidden">
  <defs>
    <symbol id="icon-skrill" viewBox="0 0 94 32">
      <path fill="#811963" d="m67.314 7.688.069.001a3.845 3.845 0 0 0 0-7.69L67.316 0h.003-.002a3.845 3.845 0 0 0-.002 7.69zM37.856 9.763c-.173.435-1.422 3.963-4.443 7.619V1.748l-8.05 1.592v28.337h8.05v-8.76c2.331 3.497 3.483 8.76 3.483 8.76h9.642c-.954-3.963-5.127-11.273-5.127-11.273 3.745-4.746 5.39-9.803 5.651-10.641h-9.207zm21.165-.296c-7.211.231-10.871 3.465-10.871 9.895v12.315h7.866V21.634c0-3.85.504-5.501 5.074-5.657V9.58c-.77-.163-2.07-.113-2.07-.113zm-47.159 3.416c-.986-.065-3.269-.213-3.269-2.266 0-2.48 3.286-2.48 4.519-2.48 2.168 0 4.975.64 6.979 1.24 0 0 1.119.394 2.069.798l.09.024V3.41l-.122-.037c-2.366-.827-5.117-1.624-10.217-1.624C3.116 1.748 0 6.87 0 11.256c0 2.53 1.083 8.482 11.155 9.169.854.053 3.12.183 3.12 2.306 0 1.753-1.855 2.786-4.975 2.786-3.419 0-6.736-.872-8.751-1.698v6.993c3.016.791 6.416 1.186 10.399 1.186 8.599 0 12.45-4.846 12.45-9.649 0-5.446-4.31-8.983-11.539-9.467zm51.554 18.795h7.803V9.788h-7.802v21.89zM85.912 3.145v28.533h7.802V1.749l-7.803 1.394zm-11.387 0 7.795-1.397v29.928h-7.797V3.145z" style="fill:var(--color1, #811963)"/>
    </symbol>
    <symbol id="icon-mastercard" viewBox="0 0 41 32">
      <path fill="#fff" d="M7.513 31.929v-2.126c0-.815-.496-1.347-1.347-1.347-.425 0-.886.142-1.205.602-.248-.39-.602-.602-1.134-.602-.354 0-.709.106-.992.496v-.425h-.709v3.402h.744v-1.878c0-.602.319-.886.815-.886s.744.319.744.886v1.878h.744v-1.878c0-.602.354-.886.815-.886.496 0 .744.319.744.886v1.878h.78zm11.021-3.402h-1.205v-1.028h-.744v1.028h-.673v.673h.673v1.559c0 .78.319 1.24 1.169 1.24.319 0 .673-.106.921-.248l-.213-.638a1.165 1.165 0 0 1-.638.177c-.354 0-.496-.213-.496-.567v-1.524h1.205v-.673zm6.272-.071a1 1 0 0 0-.886.496v-.425h-.744v3.402h.744v-1.914c0-.567.248-.886.709-.886.142 0 .319.035.461.071l.213-.709c-.142 0-.354-.035-.496-.035zm-9.497.355c-.354-.248-.851-.354-1.382-.354-.851 0-1.418.425-1.418 1.099 0 .567.425.886 1.169.992l.354.035c.39.071.602.177.602.354 0 .248-.284.425-.78.425s-.886-.177-1.134-.354l-.354.567c.39.284.921.425 1.453.425.992 0 1.559-.461 1.559-1.099 0-.602-.461-.921-1.169-1.028l-.354-.035c-.319-.035-.567-.106-.567-.319 0-.248.248-.39.638-.39.425 0 .851.177 1.063.284l.319-.602zm19.739-.355a1 1 0 0 0-.886.496v-.425h-.744v3.402h.744v-1.914c0-.567.248-.886.709-.886.142 0 .319.035.461.071l.213-.709c-.142 0-.354-.035-.496-.035zm-9.498 1.772c0 1.028.709 1.772 1.807 1.772.496 0 .851-.106 1.205-.39l-.354-.602c-.284.213-.567.319-.886.319-.602 0-1.028-.425-1.028-1.099 0-.638.425-1.063 1.028-1.099.319 0 .602.106.886.319l.354-.602c-.354-.284-.709-.39-1.205-.39-1.099 0-1.807.744-1.807 1.772zm6.911 0v-1.701h-.744v.425c-.248-.319-.602-.496-1.063-.496-.957 0-1.701.744-1.701 1.772S29.697 32 30.654 32c.496 0 .851-.177 1.063-.496v.425h.744v-1.701zm-2.764 0c0-.602.39-1.099 1.028-1.099.602 0 1.028.461 1.028 1.099 0 .602-.425 1.099-1.028 1.099-.638 0-1.028-.496-1.028-1.099zm-8.895-1.772c-.992 0-1.701.709-1.701 1.772S19.81 32 20.837 32c.496 0 .992-.142 1.382-.461l-.354-.532a1.692 1.692 0 0 1-.992.354c-.461 0-.921-.213-1.028-.815h2.516v-.284c.071-1.099-.602-1.807-1.559-1.807zm0 .674c.461 0 .78.284.851.815h-1.772c.106-.496.39-.815.921-.815zM39.3 30.228V27.18h-.744v1.772c-.248-.319-.602-.496-1.063-.496-.957 0-1.701.744-1.701 1.772S36.536 32 37.493 32c.496 0 .85-.177 1.063-.496v.425h.744v-1.701zm-2.764 0c0-.602.39-1.099 1.028-1.099.602 0 1.028.461 1.028 1.099 0 .602-.425 1.099-1.028 1.099-.638 0-1.028-.496-1.028-1.099zm-24.877 0v-1.701h-.744v.425c-.248-.319-.602-.496-1.063-.496-.957 0-1.701.744-1.701 1.772S8.895 32 9.852 32c.496 0 .851-.177 1.063-.496v.425h.744v-1.701zm-2.729 0c0-.602.39-1.099 1.028-1.099.602 0 1.028.461 1.028 1.099 0 .602-.425 1.099-1.028 1.099-.638 0-1.028-.496-1.028-1.099z" style="fill:var(--color2, #fff)"/>
      <path fill="#ff5f00" d="M15.061 2.729h11.163v20.058H15.061z" style="fill:var(--color3, #ff5f00)"/>
      <path fill="#eb001b" d="M15.77 12.757c0-4.075 1.914-7.69 4.855-10.029a12.68 12.68 0 0 0-7.867-2.729C5.706-.001.001 5.704.001 12.756s5.705 12.757 12.757 12.757a12.68 12.68 0 0 0 7.867-2.729c-2.941-2.339-4.855-5.954-4.855-10.029z" style="fill:var(--color4, #eb001b)"/>
      <path fill="#f79e1b" d="M41.285 12.757c0 7.052-5.705 12.757-12.757 12.757a12.68 12.68 0 0 1-7.867-2.729c2.941-2.339 4.855-5.954 4.855-10.029s-1.914-7.69-4.89-10.029c2.197-1.701 4.926-2.729 7.903-2.729 7.052 0 12.757 5.705 12.757 12.757z" style="fill:var(--color5, #f79e1b)"/>
    </symbol>
    <symbol id="icon-visa" viewBox="0 0 99 32">
      <path fill="#1434cb" style="fill: var(--color1, #1434cb)" d="M64.171 0.039c-6.995 0-13.247 3.626-13.247 10.325 0 7.683 11.087 8.213 11.087 12.073 0 1.625-1.862 3.080-5.043 3.080-4.514 0-7.888-2.033-7.888-2.033l-1.444 6.76s3.887 1.717 9.047 1.717c7.648 0 13.666-3.804 13.666-10.617 0-8.118-11.133-8.633-11.133-12.215 0-1.273 1.529-2.668 4.7-2.668 3.579 0 6.498 1.478 6.498 1.478l1.413-6.529s-3.177-1.371-7.657-1.371zM0.169 0.532l-0.169 0.986s2.943 0.539 5.594 1.613c3.413 1.232 3.656 1.949 4.231 4.177l6.263 24.146h8.396l12.935-30.921h-8.377l-8.312 21.023-3.392-17.82c-0.311-2.039-1.887-3.203-3.815-3.203h-13.355zM40.788 0.532l-6.572 30.921h7.988l6.548-30.921h-7.965zM85.341 0.532c-1.926 0-2.947 1.031-3.696 2.833l-11.703 28.087h8.377l1.621-4.681h10.206l0.986 4.681h7.391l-6.448-30.921h-6.733zM86.43 8.886l2.483 11.603h-6.652z"></path>
    </symbol>
    <symbol id="icon-webmoney" viewBox="0 0 32 32">
      <path fill="#006bb3" style="fill: var(--color3, #006bb3)" d="M15.939 0c2.422-0.006 4.812 0.547 6.987 1.615 0.332 0.157 0.663 0.332 0.994 0.523l-1.466 1.327-2.207-2.285-3.721 3.341-2.21-2.431-6.916 6.27 4.43 4.915-1.747 1.54 4.378 4.927-1.737 1.537 6.256 6.986 3.712-3.429 3.217 3.677c-0.612 0.481-1.3 0.943-2.020 1.355l-0.084 0.044c-2.258 1.308-4.967 2.079-7.857 2.079-2.234 0-4.36-0.461-6.288-1.293l0.103 0.040c-2.317-0.995-4.271-2.438-5.829-4.233l-0.017-0.020c-1.545-1.779-2.713-3.928-3.351-6.295l-0.026-0.112c-0.335-1.224-0.527-2.63-0.527-4.081 0-1.119 0.115-2.212 0.332-3.266l-0.018 0.104c0.518-2.524 1.564-4.746 3.022-6.633l-0.028 0.037c1.483-1.921 3.35-3.47 5.495-4.55l0.092-0.042c2.051-1.036 4.47-1.644 7.031-1.645h0z"></path>
      <path fill="#006bb3" style="fill: var(--color3, #006bb3)" d="M13.034 14.988l3.793-3.425 3.413 3.806-3.789 3.426-3.416-3.806zM15.73 21.565l3.792-3.426 3.413 3.803-3.789 3.426-3.416-3.803zM10.323 8.492l3.793-3.426 3.409 3.807-3.789 3.426-3.413-3.807zM17.281 6.648l2.84-2.57 2.56 2.854-2.843 2.57-2.558-2.854zM22.33 18.417l2.844-2.57 2.561 2.854-2.843 2.57-2.561-2.854zM24.83 24.18l2.843-2.57 2.561 2.854-2.843 2.57-2.561-2.854zM25.975 10.971l1.894-1.715 1.708 1.902-1.894 1.715-1.708-1.903zM23.556 5.318l1.895-1.715 1.705 1.905-1.895 1.712-1.705-1.902zM28.401 16.621l1.894-1.711 1.705 1.901-1.894 1.712-1.705-1.902zM19.899 12.385l2.844-2.57 2.56 2.854-2.843 2.57-2.56-2.854z"></path>
    </symbol>
    <symbol id="icon-mobilefad" viewBox="0 0 118 32">
      <path fill="#f0efef" style="fill: var(--color1, #f0efef)" d="M0 9.030c0-2.922 1.411-5.158 4.235-6.707 2.821-1.549 6.413-2.323 10.771-2.323 5.19 0 9.643 0.818 13.357 2.454v7.453c-3.41-1.987-7.579-2.952-12.504-2.893-3.374 0.029-5.059 0.686-5.059 1.973 0 0.613 0.512 1.16 1.534 1.643 1.024 0.482 2.302 0.891 3.837 1.227 1.536 0.336 3.192 0.789 4.974 1.36 1.779 0.568 3.438 1.205 4.973 1.906 1.539 0.703 2.825 1.722 3.82 2.982l0.016 0.021c1.024 1.301 1.536 2.798 1.536 4.493 0 6.254-5.307 9.381-15.917 9.381-5.798 0-10.896-0.934-15.291-2.805v-7.672c4.358 2.309 9.189 3.462 14.496 3.462 2.122 0 3.637-0.152 4.547-0.459 0.909-0.307 1.365-0.84 1.365-1.6 0-0.79-0.71-1.477-2.133-2.061-1.421-0.584-3.146-1.133-5.173-1.643-2.577-0.649-4.607-1.272-6.597-1.979l0.516 0.16c-2.027-0.702-3.752-1.768-5.173-3.2-1.421-1.434-2.131-3.158-2.131-5.174zM80.829 0.656v30.688h-10.517v-16.309l-8.526 10.082h-6.024l-8.526-10.125v16.352h-10.515v-30.688h9.947l12.107 14.378 12.106-14.376h9.947zM86.91 9.030c0-2.922 1.411-5.158 4.234-6.707 2.824-1.549 6.414-2.323 10.773-2.323 5.19 0 9.643 0.818 13.357 2.454v7.453c-3.41-1.987-7.578-2.952-12.506-2.893-3.373 0.029-5.058 0.686-5.058 1.973 0 0.613 0.512 1.16 1.534 1.643 1.024 0.482 2.302 0.891 3.837 1.227 1.536 0.336 3.192 0.789 4.973 1.36 1.781 0.568 3.44 1.205 4.974 1.906 1.539 0.703 2.825 1.722 3.82 2.982l0.016 0.021c1.024 1.301 1.536 2.798 1.536 4.493-0.002 6.254-5.309 9.381-15.918 9.381-5.798 0-10.896-0.934-15.291-2.805v-7.672c4.358 2.309 9.189 3.462 14.496 3.462 2.122 0 3.637-0.152 4.547-0.459 0.909-0.307 1.363-0.84 1.363-1.6 0-0.79-0.71-1.477-2.131-2.061s-3.146-1.133-5.173-1.643c-2.577-0.649-4.607-1.272-6.597-1.979l0.515 0.16c-2.027-0.702-3.752-1.768-5.173-3.2s-2.131-3.157-2.131-5.173z"></path>
    </symbol>
    <symbol id="icon-neteller" viewBox="0 0 188 32">
      <path fill="#83ba3b" style="fill: var(--color2, #83ba3b)" d="M184.796 2.432c-2.402-1.619-6.029-2.432-10.792-2.432h-12.461l-4.631 24.747h-16.314l1.035-5.611h9.833l1.167-6.31h-9.826l1.054-5.585h10.133l1.342-7.241h-20.574l-4.392 23.456h-7.529l4.429-23.456h-10.778l-4.393 23.456h-7.36l4.437-23.456h-10.754l-4.638 24.747h-16.444l1.041-5.611h9.877l1.167-6.272h-9.864l1.047-5.598h10.248l1.329-7.266h-64.105l-3.652 19.61-7.266-19.61h-11.157l-6.005 32h10.667l3.62-20.149 7.046 20.149h38.193l4.644-24.753h5.973l-4.642 24.753h100.48l2.91-15.624 4.713 15.624h10.665l-4.881-12.766 1.116-0.233c2.312-0.413 4.292-1.605 5.705-3.289l0.012-0.015c1.262-1.669 2.021-3.778 2.021-6.065 0-0.13-0.002-0.26-0.007-0.389l0.001 0.019c0-3.025-1.124-5.252-3.445-6.79l0.006-0.038zM50.259 24.747h-16.314l1.054-5.611h10.234l1.161-6.321h-10.135l0.979-5.557h16.314l-3.3 17.487h0.006zM176.013 13.967c-1.073 0.734-2.63 1.099-4.751 1.099h-2.108l1.619-8.587h1.551c1.762 0 3.049 0.279 3.94 0.847 0.497 0.324 0.9 0.772 1.165 1.297 0.267 0.525 0.388 1.111 0.354 1.696 0.041 0.706-0.1 1.412-0.408 2.052-0.311 0.638-0.777 1.19-1.361 1.602v-0.006z"></path>
    </symbol>
    <symbol id="icon-logo" viewBox="0 0 208 32">
      <path d="M167.18 10.927c0 .039.008.086.008.125v8.882c0 .101-.008.203-.016.304.008.156.016.312.016.468 0 5.963-4.839 10.794-10.794 10.794-.164 0-.328-.008-.492-.008-.109 0-.219.008-.328.008H132.69c-2.529 0-4.605-2.076-4.605-4.605V4.885c0-2.529 2.076-4.605 4.605-4.605h24.047c.211 0 .429.016.64.047 5.448.492 9.733 5.034 9.803 10.599zm-64.296-8.609L87.469 24.336c-1.46 2.076-.944 4.964 1.124 6.416 2.076 1.452 4.964.944 6.423-1.132l2.068-2.966h19.2l2.076 2.966c1.452 2.076 4.34 2.583 6.416 1.132s2.583-4.34 1.132-6.416L110.493 2.318a4.625 4.625 0 0 0-3.871-1.959 4.613 4.613 0 0 0-3.739 1.959zm-.055 16.141 3.856-5.51 3.863 5.51h-7.719zM183.321 2.24l-15.415 22.018c-1.452 2.076-.944 4.964 1.132 6.416s4.964.944 6.416-1.132l2.076-2.966h19.2l2.068 2.966c1.459 2.076 4.347 2.583 6.423 1.132s2.583-4.34 1.132-6.416L190.938 2.24a4.625 4.625 0 0 0-3.871-1.959 4.625 4.625 0 0 0-3.746 1.959zm-.055 16.141 3.863-5.51 3.863 5.51h-7.727zM45.175 2.24 29.76 24.258c-1.452 2.076-.944 4.964 1.132 6.416s4.964.944 6.416-1.132l2.076-2.966h19.192l2.076 2.966c1.452 2.076 4.34 2.583 6.416 1.132s2.591-4.34 1.132-6.416L52.785 2.24C51.88.937 50.405.258 48.922.281a4.625 4.625 0 0 0-3.746 1.959zm-.055 16.141 3.863-5.51 3.856 5.51H45.12zm36.542 11.238L97.077 7.601c1.452-2.076.944-4.964-1.132-6.416s-4.964-.944-6.416 1.132L77.853 18.988 66.185 2.317c-1.452-2.076-4.34-2.583-6.416-1.132s-2.583 4.34-1.132 6.416l15.415 22.018a4.61 4.61 0 0 0 3.863 1.959 4.615 4.615 0 0 0 3.746-1.959zm-57.701-.078L39.376 7.523c1.452-2.076.944-4.964-1.132-6.416S33.28.163 31.828 2.239L20.152 18.91 8.484 2.239C7.024.163 4.137-.344 2.061 1.107S-.522 5.447.929 7.523l15.415 22.018a4.625 4.625 0 0 0 3.871 1.959 4.625 4.625 0 0 0 3.746-1.959zM156.527 8.086h-20.636v15.61h19.575l.336-.023.445.023h.148a2.99 2.99 0 0 0 2.989-2.989c0-.047-.008-.086-.008-.133l-.016-.429.023-.32v-8.726c-.008-.023-.008-.047-.008-.062-.016-1.522-1.186-2.802-2.701-2.935l-.148-.016z"/>
    </symbol>
    <symbol id="icon-close" viewBox="0 0 32 32">
      <path stroke-linecap="round" stroke-linejoin="round" stroke-width="2.909" d="M24 8 8 24M8 8l16 16"/>
    </symbol>
    <symbol id="icon-menu" viewBox="0 0 32 32">
      <path stroke-linecap="round" stroke-linejoin="round" stroke-width="3" d="M4 16h24M4 8h24M4 24h24"/>
    </symbol>
    <symbol id="icon-chevron" viewBox="0 0 32 32">
      <path stroke-linejoin="round" stroke-linecap="round" stroke-miterlimit="4" stroke-width="3" d="M24 20l-8-8-8 8"></path>
    </symbol> 
    <symbol id="icon-gaming" viewBox="0 0 56 32">
     <path fill="#016939" style="fill: var(--color1, #016939)" d="M0 0.004h56.457v31.992h-56.457z"></path>
     <path fill="#fff" style="fill: var(--color2, #fff)" d="M19.707 9.763c0.218 0 0.407 0.188 0.407 0.38v8.619c0 0.245-0.136 0.489-0.324 0.651-1.626 1.381-4.118 2.194-6.722 2.194-5.853 0-9.756-3.903-9.756-9.756s3.903-9.756 9.756-9.756c2.006 0 4.118 0.595 5.691 1.573 0.218 0.109 0.297 0.324 0.245 0.489l-1.355 3.982c-0.083 0.188-0.271 0.271-0.516 0.218-1.11-0.595-2.548-0.948-3.903-0.948-2.492 0-4.174 1.788-4.174 4.445s1.679 4.498 4.174 4.498c1.001 0 1.679-0.188 1.98-0.516v-1.573h-2.492c-0.245 0-0.406-0.109-0.433-0.297l-0.354-3.741c-0.026-0.271 0.136-0.459 0.433-0.459h7.343zM15.371 15.428v0.109zM36.727 19.576c0.083 0.192-0.026 0.38-0.245 0.489-1.573 0.975-3.685 1.573-5.691 1.573-5.582 0-9.323-3.903-9.323-9.756s3.741-9.756 9.323-9.756c2.006 0 4.118 0.595 5.691 1.573 0.218 0.109 0.324 0.297 0.245 0.489l-1.788 3.768c-0.109 0.245-0.297 0.324-0.516 0.218-1.001-0.568-1.98-0.76-3.143-0.76-2.439 0-4.065 1.788-4.065 4.471s1.626 4.471 4.065 4.471c1.167 0 2.142-0.188 3.143-0.76 0.218-0.109 0.407-0.026 0.516 0.218l1.788 3.768zM46.807 2.529c3.549 0 5.909 2.115 5.909 5.284 0 1.95-0.948 3.387-2.413 3.82 1.709 0.433 2.819 2.059 2.819 4.31 0 3.169-2.356 5.284-5.879 5.284h-8.593c-0.215 0-0.38-0.188-0.38-0.38v-17.912c0-0.188 0.162-0.406 0.38-0.406h8.16zM45.561 9.873c0.813 0 1.355-0.489 1.355-1.246s-0.542-1.246-1.355-1.246h-1.709v2.492zM46.047 16.376c0.787 0 1.329-0.516 1.329-1.302s-0.542-1.302-1.329-1.302h-2.194v2.601h2.194zM12.993 29.094c0.019 0.034 0 0.083-0.041 0.117-0.365 0.23-0.869 0.388-1.253 0.388-1.227 0-2.040-0.787-2.040-1.965s0.813-1.965 2.040-1.965c0.388 0 0.888 0.154 1.253 0.388 0.041 0.034 0.060 0.083 0.041 0.117l-0.391 0.828c-0.026 0.053-0.075 0.075-0.12 0.041-0.169-0.12-0.425-0.203-0.651-0.203-0.493 0-0.821 0.32-0.821 0.798s0.324 0.798 0.82 0.798c0.222 0 0.482-0.083 0.651-0.203 0.049-0.034 0.094-0.015 0.12 0.041l0.391 0.828zM16.516 29.109c0.015 0.049 0 0.075-0.049 0.102-0.361 0.237-0.881 0.38-1.404 0.38-1.201 0-1.999-0.787-1.999-1.957s0.787-1.965 1.965-1.965 1.788 0.726 1.788 1.957c0 0.102-0.008 0.203-0.026 0.305-0.008 0.053-0.041 0.083-0.102 0.083h-2.175s0 0.425 0.568 0.425c0.346 0 0.73-0.083 1.039-0.222 0.049-0.019 0.087 0.008 0.102 0.053l0.29 0.839zM15.473 27.299c0-0.297-0.184-0.493-0.455-0.493-0.305 0-0.508 0.196-0.508 0.493zM19.346 25.76c0.053 0 0.094 0.041 0.094 0.094v0.881c0 0.053-0.041 0.094-0.094 0.094h-0.177c-0.256 0-0.489 0.117-0.576 0.286v2.27c0 0.053-0.049 0.102-0.102 0.102h-1.193c-0.053 0-0.102-0.049-0.102-0.102v-3.523c0-0.049 0.049-0.094 0.102-0.094h0.764c0.053 0 0.087 0.049 0.109 0.102l0.102 0.297c0.203-0.252 0.534-0.407 0.896-0.407zM22.030 25.76c0.060 0 0.102 0.041 0.102 0.094l-0.075 0.659c-0.008 0.053-0.049 0.102-0.102 0.102h-0.433v2.77c0 0.053-0.049 0.102-0.102 0.102h-1.193c-0.053 0-0.102-0.049-0.102-0.102v-2.77h-0.388c-0.049 0-0.094-0.041-0.094-0.094v-0.659c0-0.060 0.049-0.102 0.094-0.102h0.388v-0.738c0-0.049 0.049-0.087 0.102-0.094l1.193-0.117c0.053-0.008 0.102 0.049 0.102 0.094v0.854zM22.952 29.584c-0.358 0-0.595-0.222-0.595-0.557s0.237-0.568 0.595-0.568 0.595 0.23 0.595 0.568-0.237 0.557-0.595 0.557zM26.298 29c-0.109 0.218-0.433 0.358-0.813 0.358-0.99 0-1.649-0.711-1.649-1.784 0-1.201 0.61-1.912 1.649-1.912 0.523 0 0.937 0.143 1.11 0.388l0.12-0.188c0.041-0.060 0.102-0.102 0.158-0.102h0.719c0.060 0 0.102 0.041 0.102 0.102v3.278c0 1.024-0.93 1.709-2.081 1.709-0.67 0-1.268-0.154-1.6-0.425-0.041-0.034-0.053-0.083-0.041-0.117l0.346-0.839c0.019-0.049 0.060-0.068 0.102-0.041 0.29 0.237 0.738 0.38 1.193 0.38 0.425 0 0.685-0.226 0.685-0.61zM26.298 27.239s-0.102-0.305-0.467-0.305c-0.339 0-0.534 0.237-0.534 0.644s0.196 0.651 0.534 0.651c0.365 0 0.467-0.305 0.467-0.305zM31.405 29.094c0.019 0.034 0 0.083-0.041 0.117-0.365 0.23-0.869 0.388-1.253 0.388-1.227 0-2.040-0.787-2.040-1.965s0.813-1.965 2.040-1.965c0.388 0 0.888 0.154 1.253 0.388 0.041 0.034 0.060 0.083 0.041 0.117l-0.391 0.828c-0.026 0.053-0.075 0.075-0.12 0.041-0.169-0.12-0.429-0.203-0.651-0.203-0.493 0-0.82 0.32-0.82 0.798s0.324 0.798 0.82 0.798c0.222 0 0.482-0.083 0.651-0.203 0.049-0.034 0.094-0.015 0.12 0.041l0.391 0.828zM33.189 25.921c0.203-0.162 0.508-0.256 0.828-0.256 1.073 0 1.788 0.787 1.788 1.957s-0.719 1.965-1.788 1.965c-0.455 0-0.888-0.177-1.144-0.448l-0.102 0.245c-0.026 0.060-0.060 0.102-0.109 0.102h-0.768c-0.053 0-0.102-0.049-0.102-0.102v-4.716c0-0.049 0.049-0.094 0.102-0.094h1.193c0.053 0 0.102 0.049 0.102 0.094zM33.189 28.059c0.083 0.222 0.297 0.373 0.534 0.373 0.373 0 0.625-0.324 0.625-0.813s-0.252-0.787-0.625-0.787c-0.237 0-0.455 0.151-0.534 0.373zM36.69 29.584c-0.358 0-0.595-0.222-0.595-0.557s0.237-0.568 0.595-0.568 0.595 0.23 0.595 0.568-0.237 0.557-0.595 0.557zM40.913 29.094c0.019 0.034 0 0.083-0.041 0.117-0.365 0.23-0.869 0.388-1.253 0.388-1.227 0-2.040-0.787-2.040-1.965s0.813-1.965 2.040-1.965c0.388 0 0.888 0.154 1.253 0.388 0.041 0.034 0.060 0.083 0.041 0.117l-0.391 0.828c-0.026 0.053-0.075 0.075-0.12 0.041-0.169-0.12-0.425-0.203-0.651-0.203-0.493 0-0.821 0.32-0.821 0.798s0.324 0.798 0.821 0.798c0.226 0 0.482-0.083 0.651-0.203 0.049-0.034 0.094-0.015 0.12 0.041l0.391 0.828zM46.86 25.76c0.053 0 0.087 0.049 0.068 0.094l-1.103 3.538c-0.015 0.049-0.068 0.094-0.12 0.094h-1.050c-0.053 0-0.117-0.049-0.136-0.094l-0.523-1.803-0.523 1.803c-0.019 0.049-0.083 0.094-0.136 0.094h-1.050c-0.053 0-0.109-0.049-0.12-0.094l-1.103-3.538c-0.019-0.049 0.015-0.094 0.068-0.094h1.37c0.060 0 0.117 0.041 0.128 0.094l0.354 1.483 0.365-1.483c0.015-0.068 0.075-0.094 0.12-0.094h1.058c0.102 0 0.109 0.026 0.12 0.094l0.365 1.483 0.354-1.483c0.015-0.053 0.068-0.094 0.128-0.094h1.37z"></path>
    </symbol>
    <symbol id="icon-minus" viewBox="0 0 32 32">
      <path d="M32 15.999c0 1.547-1.253 2.801-2.801 2.801h-26.399c-0.773 0-1.473-0.313-1.98-0.82s-0.82-1.206-0.82-1.98c-0-1.547 1.254-2.801 2.801-2.8h26.4c1.546 0 2.799 1.253 2.799 2.799z"></path>
    </symbol>
    <symbol id="icon-plus" viewBox="0 0 32 32">
      <path stroke-width="2.667" d="M17.437 12.63v1.333H28.13a1.204 1.204 0 1 1 0 2.408H17.437v10.693a1.204 1.204 0 1 1-2.408 0V16.371H4.336a1.204 1.204 0 1 1 0-2.408h10.693V3.27a1.204 1.204 0 1 1 2.408 0v9.36z"/>
    </symbol>
  </defs>
</svg>
