<svg xmlns="http://www.w3.org/2000/svg" aria-hidden="true" style="position:absolute;width:0;height:0;overflow:hidden">
  <defs>
    <symbol id="icon-skrill" viewBox="0 0 94 32">
      <path fill="#811963" d="m67.314 7.688.069.001a3.845 3.845 0 0 0 0-7.69L67.316 0h.003-.002a3.845 3.845 0 0 0-.002 7.69zM37.856 9.763c-.173.435-1.422 3.963-4.443 7.619V1.748l-8.05 1.592v28.337h8.05v-8.76c2.331 3.497 3.483 8.76 3.483 8.76h9.642c-.954-3.963-5.127-11.273-5.127-11.273 3.745-4.746 5.39-9.803 5.651-10.641h-9.207zm21.165-.296c-7.211.231-10.871 3.465-10.871 9.895v12.315h7.866V21.634c0-3.85.504-5.501 5.074-5.657V9.58c-.77-.163-2.07-.113-2.07-.113zm-47.159 3.416c-.986-.065-3.269-.213-3.269-2.266 0-2.48 3.286-2.48 4.519-2.48 2.168 0 4.975.64 6.979 1.24 0 0 1.119.394 2.069.798l.09.024V3.41l-.122-.037c-2.366-.827-5.117-1.624-10.217-1.624C3.116 1.748 0 6.87 0 11.256c0 2.53 1.083 8.482 11.155 9.169.854.053 3.12.183 3.12 2.306 0 1.753-1.855 2.786-4.975 2.786-3.419 0-6.736-.872-8.751-1.698v6.993c3.016.791 6.416 1.186 10.399 1.186 8.599 0 12.45-4.846 12.45-9.649 0-5.446-4.31-8.983-11.539-9.467zm51.554 18.795h7.803V9.788h-7.802v21.89zM85.912 3.145v28.533h7.802V1.749l-7.803 1.394zm-11.387 0 7.795-1.397v29.928h-7.797V3.145z" style="fill:var(--color1, #811963)"/>
    </symbol>
    <symbol id="icon-mastercard" viewBox="0 0 41 32">
      <path fill="#fff" d="M7.513 31.929v-2.126c0-.815-.496-1.347-1.347-1.347-.425 0-.886.142-1.205.602-.248-.39-.602-.602-1.134-.602-.354 0-.709.106-.992.496v-.425h-.709v3.402h.744v-1.878c0-.602.319-.886.815-.886s.744.319.744.886v1.878h.744v-1.878c0-.602.354-.886.815-.886.496 0 .744.319.744.886v1.878h.78zm11.021-3.402h-1.205v-1.028h-.744v1.028h-.673v.673h.673v1.559c0 .78.319 1.24 1.169 1.24.319 0 .673-.106.921-.248l-.213-.638a1.165 1.165 0 0 1-.638.177c-.354 0-.496-.213-.496-.567v-1.524h1.205v-.673zm6.272-.071a1 1 0 0 0-.886.496v-.425h-.744v3.402h.744v-1.914c0-.567.248-.886.709-.886.142 0 .319.035.461.071l.213-.709c-.142 0-.354-.035-.496-.035zm-9.497.355c-.354-.248-.851-.354-1.382-.354-.851 0-1.418.425-1.418 1.099 0 .567.425.886 1.169.992l.354.035c.39.071.602.177.602.354 0 .248-.284.425-.78.425s-.886-.177-1.134-.354l-.354.567c.39.284.921.425 1.453.425.992 0 1.559-.461 1.559-1.099 0-.602-.461-.921-1.169-1.028l-.354-.035c-.319-.035-.567-.106-.567-.319 0-.248.248-.39.638-.39.425 0 .851.177 1.063.284l.319-.602zm19.739-.355a1 1 0 0 0-.886.496v-.425h-.744v3.402h.744v-1.914c0-.567.248-.886.709-.886.142 0 .319.035.461.071l.213-.709c-.142 0-.354-.035-.496-.035zm-9.498 1.772c0 1.028.709 1.772 1.807 1.772.496 0 .851-.106 1.205-.39l-.354-.602c-.284.213-.567.319-.886.319-.602 0-1.028-.425-1.028-1.099 0-.638.425-1.063 1.028-1.099.319 0 .602.106.886.319l.354-.602c-.354-.284-.709-.39-1.205-.39-1.099 0-1.807.744-1.807 1.772zm6.911 0v-1.701h-.744v.425c-.248-.319-.602-.496-1.063-.496-.957 0-1.701.744-1.701 1.772S29.697 32 30.654 32c.496 0 .851-.177 1.063-.496v.425h.744v-1.701zm-2.764 0c0-.602.39-1.099 1.028-1.099.602 0 1.028.461 1.028 1.099 0 .602-.425 1.099-1.028 1.099-.638 0-1.028-.496-1.028-1.099zm-8.895-1.772c-.992 0-1.701.709-1.701 1.772S19.81 32 20.837 32c.496 0 .992-.142 1.382-.461l-.354-.532a1.692 1.692 0 0 1-.992.354c-.461 0-.921-.213-1.028-.815h2.516v-.284c.071-1.099-.602-1.807-1.559-1.807zm0 .674c.461 0 .78.284.851.815h-1.772c.106-.496.39-.815.921-.815zM39.3 30.228V27.18h-.744v1.772c-.248-.319-.602-.496-1.063-.496-.957 0-1.701.744-1.701 1.772S36.536 32 37.493 32c.496 0 .85-.177 1.063-.496v.425h.744v-1.701zm-2.764 0c0-.602.39-1.099 1.028-1.099.602 0 1.028.461 1.028 1.099 0 .602-.425 1.099-1.028 1.099-.638 0-1.028-.496-1.028-1.099zm-24.877 0v-1.701h-.744v.425c-.248-.319-.602-.496-1.063-.496-.957 0-1.701.744-1.701 1.772S8.895 32 9.852 32c.496 0 .851-.177 1.063-.496v.425h.744v-1.701zm-2.729 0c0-.602.39-1.099 1.028-1.099.602 0 1.028.461 1.028 1.099 0 .602-.425 1.099-1.028 1.099-.638 0-1.028-.496-1.028-1.099z" style="fill:var(--color2, #fff)"/>
      <path fill="#ff5f00" d="M15.061 2.729h11.163v20.058H15.061z" style="fill:var(--color3, #ff5f00)"/>
      <path fill="#eb001b" d="M15.77 12.757c0-4.075 1.914-7.69 4.855-10.029a12.68 12.68 0 0 0-7.867-2.729C5.706-.001.001 5.704.001 12.756s5.705 12.757 12.757 12.757a12.68 12.68 0 0 0 7.867-2.729c-2.941-2.339-4.855-5.954-4.855-10.029z" style="fill:var(--color4, #eb001b)"/>
      <path fill="#f79e1b" d="M41.285 12.757c0 7.052-5.705 12.757-12.757 12.757a12.68 12.68 0 0 1-7.867-2.729c2.941-2.339 4.855-5.954 4.855-10.029s-1.914-7.69-4.89-10.029c2.197-1.701 4.926-2.729 7.903-2.729 7.052 0 12.757 5.705 12.757 12.757z" style="fill:var(--color5, #f79e1b)"/>
    </symbol>
    <symbol id="icon-visa" viewBox="0 0 98 32">
      <path xmlns="http://www.w3.org/2000/svg" fill="url(#b)" d="m0 0 98.437 36.252 22.394-60.809-98.436-36.252" class="svg_color" transform="translate(351.611 96.896)"/>
    </symbol>
    <symbol id="icon-logo" viewBox="0 0 208 32">
      <path d="M167.18 10.927c0 .039.008.086.008.125v8.882c0 .101-.008.203-.016.304.008.156.016.312.016.468 0 5.963-4.839 10.794-10.794 10.794-.164 0-.328-.008-.492-.008-.109 0-.219.008-.328.008H132.69c-2.529 0-4.605-2.076-4.605-4.605V4.885c0-2.529 2.076-4.605 4.605-4.605h24.047c.211 0 .429.016.64.047 5.448.492 9.733 5.034 9.803 10.599zm-64.296-8.609L87.469 24.336c-1.46 2.076-.944 4.964 1.124 6.416 2.076 1.452 4.964.944 6.423-1.132l2.068-2.966h19.2l2.076 2.966c1.452 2.076 4.34 2.583 6.416 1.132s2.583-4.34 1.132-6.416L110.493 2.318a4.625 4.625 0 0 0-3.871-1.959 4.613 4.613 0 0 0-3.739 1.959zm-.055 16.141 3.856-5.51 3.863 5.51h-7.719zM183.321 2.24l-15.415 22.018c-1.452 2.076-.944 4.964 1.132 6.416s4.964.944 6.416-1.132l2.076-2.966h19.2l2.068 2.966c1.459 2.076 4.347 2.583 6.423 1.132s2.583-4.34 1.132-6.416L190.938 2.24a4.625 4.625 0 0 0-3.871-1.959 4.625 4.625 0 0 0-3.746 1.959zm-.055 16.141 3.863-5.51 3.863 5.51h-7.727zM45.175 2.24 29.76 24.258c-1.452 2.076-.944 4.964 1.132 6.416s4.964.944 6.416-1.132l2.076-2.966h19.192l2.076 2.966c1.452 2.076 4.34 2.583 6.416 1.132s2.591-4.34 1.132-6.416L52.785 2.24C51.88.937 50.405.258 48.922.281a4.625 4.625 0 0 0-3.746 1.959zm-.055 16.141 3.863-5.51 3.856 5.51H45.12zm36.542 11.238L97.077 7.601c1.452-2.076.944-4.964-1.132-6.416s-4.964-.944-6.416 1.132L77.853 18.988 66.185 2.317c-1.452-2.076-4.34-2.583-6.416-1.132s-2.583 4.34-1.132 6.416l15.415 22.018a4.61 4.61 0 0 0 3.863 1.959 4.615 4.615 0 0 0 3.746-1.959zm-57.701-.078L39.376 7.523c1.452-2.076.944-4.964-1.132-6.416S33.28.163 31.828 2.239L20.152 18.91 8.484 2.239C7.024.163 4.137-.344 2.061 1.107S-.522 5.447.929 7.523l15.415 22.018a4.625 4.625 0 0 0 3.871 1.959 4.625 4.625 0 0 0 3.746-1.959zM156.527 8.086h-20.636v15.61h19.575l.336-.023.445.023h.148a2.99 2.99 0 0 0 2.989-2.989c0-.047-.008-.086-.008-.133l-.016-.429.023-.32v-8.726c-.008-.023-.008-.047-.008-.062-.016-1.522-1.186-2.802-2.701-2.935l-.148-.016z"/>
    </symbol>
    <symbol id="icon-close" viewBox="0 0 32 32">
      <path stroke-linecap="round" stroke-linejoin="round" stroke-width="2.909" d="M24 8 8 24M8 8l16 16"/>
    </symbol>
    <symbol id="icon-menu" viewBox="0 0 32 32">
      <path stroke-linecap="round" stroke-linejoin="round" stroke-width="3" d="M4 16h24M4 8h24M4 24h24"/>
    </symbol>
  </defs>
</svg>
