<svg xmlns="http://www.w3.org/2000/svg" aria-hidden="true" style="position:absolute;width:0;height:0;overflow:hidden">
  <defs>
    <symbol id="icon-untitled" viewBox="0 0 32 32">
      <path d="M16 32C7.163 32 0 24.837 0 16S7.163 0 16 0s16 7.163 16 16-7.163 16-16 16zM.941 16c0 8.317 6.742 15.059 15.059 15.059S31.059 24.317 31.059 16 24.317.941 16 .941.941 7.683.941 16zm29.304 0c0-7.867-6.378-14.245-14.245-14.245S1.755 8.133 1.755 16c0 7.867 6.378 14.245 14.245 14.245S30.245 23.867 30.245 16zM5.572 12.777v-.703c0-.176.07-.304.211-.386l2.037-1.177c.187-.105.34-.158.457-.158h.738c.164 0 .246.082.246.246v10.802c0 .164-.082.246-.246.246h-.79c-.164 0-.246-.082-.246-.246v-9.677l-2.09 1.194c-.211.117-.316.07-.316-.14zm8.923 7.745h1.546c.984 0 1.475-.492 1.475-1.475v-1.054c0-1.007-.492-1.511-1.475-1.511h-1.546c-.984 0-1.475.503-1.475 1.511v1.054c0 .984.492 1.475 1.475 1.475zm0-5.076h1.546c.984 0 1.475-.509 1.475-1.528v-.966c0-.984-.492-1.475-1.475-1.475h-1.546c-.984 0-1.475.492-1.475 1.475v.966c0 1.019.492 1.528 1.475 1.528zm1.703 6.2h-1.862c-.808 0-1.44-.22-1.897-.659s-.685-1.057-.685-1.853v-1.071c0-1.054.41-1.756 1.229-2.108-.82-.316-1.229-1.019-1.229-2.108v-.984c0-.808.228-1.428.685-1.862s1.089-.65 1.897-.65h1.862c.808 0 1.44.217 1.897.65s.685 1.054.685 1.862v.984c0 .539-.111.992-.334 1.361s-.521.618-.896.746c.82.34 1.23 1.048 1.23 2.125v1.054c0 .796-.228 1.414-.685 1.853s-1.089.659-1.897.659zm8.958-6.182h2.634c.176 0 .264.088.264.263v.562c0 .164-.088.246-.264.246h-2.634v2.67c0 .187-.088.281-.264.281h-.597c-.176 0-.264-.094-.264-.281v-2.67h-2.652c-.176 0-.263-.082-.263-.246v-.562c0-.176.088-.263.263-.263h2.652v-2.652c0-.187.088-.281.264-.281h.597c.176 0 .264.094.264.281v2.652z"/>
    </symbol>
    <symbol id="icon-askgamblers" viewBox="0 0 90 32">
      <path fill="#ff333a" d="M87.777 31.364H2.405C1.077 31.364 0 30.263 0 28.906V3.095C0 1.737 1.077.637 2.405.637h85.372c1.328 0 2.405 1.101 2.405 2.458v25.811c0 1.358-1.077 2.458-2.405 2.458z" style="fill:var(--color1, #ff333a)"/>
      <path fill="#fff" d="m10.794 18.429-.415-1.901H8.171l-.399 1.901H5.581l2.59-11.32h2.291l2.657 11.32h-2.325zm-.747-3.649c-.233-1.086-.465-2.155-.631-3.258a44.699 44.699 0 0 1-.183-1.493c-.1 1.595-.415 3.174-.73 4.752l1.544-.001zM18.437 9.672c-.448-.39-.963-.729-1.577-.729-.647 0-1.096.441-1.096 1.103 0 1.952 3.321 1.918 3.321 5.074 0 1.952-1.146 3.496-3.155 3.496a3.332 3.332 0 0 1-1.909-.577V15.9c.498.339 1.013.611 1.627.611.747 0 1.295-.475 1.295-1.256 0-.204-.033-.39-.116-.577-.199-.424-.813-.798-1.179-1.052-1.245-.883-2.042-1.697-2.042-3.343 0-1.782 1.013-3.343 2.889-3.343.747 0 1.295.17 1.943.543l.001 2.189zM24.221 18.429l-2.042-5.753v5.753h-2.191V7.109h2.191v5.058l1.843-5.058h2.241l-2.042 5.227 2.291 6.093h-2.291zM33.895 12.133c.017.288.017.577.017.865 0 .798-.033 1.613-.199 2.393-.366 1.748-1.478 3.225-3.353 3.225-2.989 0-3.935-3.293-3.935-5.804 0-2.596.83-5.872 3.935-5.872 1.694 0 2.789 1.086 3.254 2.681l-2.125.849c-.1-.662-.282-1.562-1.112-1.562-1.494 0-1.611 2.8-1.611 3.87 0 1.12.05 3.802 1.627 3.802 1.195 0 1.328-1.527 1.345-2.444h-1.395v-2.003l3.553.001zM39.285 18.429l-.415-1.901h-2.208l-.399 1.901h-2.191l2.59-11.32h2.291l2.657 11.32h-2.325zm-.747-3.649c-.233-1.086-.465-2.155-.631-3.258a44.699 44.699 0 0 1-.183-1.493c-.1 1.595-.415 3.174-.73 4.752l1.544-.001zM50.017 18.429l-.548-8.146c-.05.883-.183 1.748-.332 2.614l-.98 5.533H46.48l-1.029-5.125c-.116-.56-.233-1.12-.282-1.697l-.133-1.324-.349 8.146h-2.341l.963-11.32h2.889l1.079 6.687.88-6.687h2.956l1.145 11.32h-2.241zM55.505 7.109c.581 0 1.561.034 2.324.798.598.594.913 1.527.913 2.444 0 .56-.116 1.12-.515 1.613a2.252 2.252 0 0 1-.88.662c.714.272 1.062.78 1.195 1.001.316.543.382 1.171.382 1.595 0 .849-.216 1.613-.83 2.24-.847.865-1.959.967-2.607.967h-2.324V7.109h2.342zm-.149 4.651c.349-.017.747-.17.963-.39.316-.323.349-.798.349-1.052 0-.272-.033-.696-.349-1.018-.183-.187-.482-.339-.963-.339v2.8zm0 4.735c.349 0 .747-.119.996-.356.233-.221.415-.611.415-1.103 0-.543-.183-.951-.432-1.188-.266-.238-.664-.356-.979-.356v3.004zM59.985 18.429V7.109h2.191v9.199h2.291v2.121h-4.483zM65.37 18.429V7.109h4.4v2.104h-2.208v2.444h1.943v2.139h-1.943v2.545h2.241v2.088H65.37zM74.994 18.429l-1.943-5.21v5.21H70.86V7.109h2.374c.813 0 1.71.068 2.407.543.88.594 1.312 1.697 1.312 2.749 0 1.29-.498 2.206-1.577 2.885l1.926 5.143-2.308-.001zm-1.942-6.449c.116.017.249.017.366.017.946 0 1.411-.662 1.411-1.578s-.399-1.544-1.361-1.544h-.415l-.001 3.105zM82.621 9.672c-.448-.39-.963-.729-1.577-.729-.648 0-1.096.441-1.096 1.103 0 1.952 3.32 1.918 3.32 5.074 0 1.952-1.146 3.496-3.155 3.496a3.332 3.332 0 0 1-1.909-.577V15.9c.498.339 1.013.611 1.627.611.747 0 1.295-.475 1.295-1.256 0-.204-.033-.39-.116-.577-.199-.424-.813-.798-1.179-1.052-1.245-.883-2.042-1.697-2.042-3.343 0-1.782 1.013-3.343 2.889-3.343.747 0 1.295.17 1.942.543l.001 2.189zM84.965 10.104c.796 0 1.442-.66 1.442-1.474s-.646-1.474-1.442-1.474c-.796 0-1.442.66-1.442 1.474s.646 1.474 1.442 1.474zM5.448 23.134c0-1.519 1.103-2.543 2.523-2.543.966 0 1.572.508 1.926 1.098l-.714.383a1.417 1.417 0 0 0-1.211-.715c-.952 0-1.658.737-1.658 1.777 0 1.024.706 1.776 1.658 1.776a1.43 1.43 0 0 0 1.211-.715l.721.369c-.367.589-.966 1.113-1.932 1.113-1.42-.001-2.523-1.032-2.523-2.543zM10.621 25.587v-4.916h3.295v.759h-2.452v1.268h2.401v.759h-2.401v1.371h2.452v.759h-3.295zM17.574 25.587l-1.06-1.835h-.844v1.835h-.844v-4.916h2.113c.952 0 1.579.627 1.579 1.54 0 .87-.563 1.349-1.147 1.445l1.183 1.931-.981.001zm.079-3.383c0-.472-.346-.774-.822-.774H15.67v1.562h1.161c.476 0 .822-.309.822-.788zM20.482 25.588v-4.157h-1.456v-.759h3.757v.759h-1.457v4.157h-.844zM23.686 25.587v-4.916h.843v4.916h-.843zM25.598 25.587v-4.916h3.295v.759h-2.452v1.268h2.401v.759h-2.401v2.13h-.843zM29.847 25.587v-4.916h.843v4.916h-.843zM31.55 23.134c0-1.519 1.103-2.543 2.524-2.543.966 0 1.572.508 1.925 1.098l-.714.383a1.417 1.417 0 0 0-1.211-.715c-.952 0-1.659.737-1.659 1.777 0 1.024.706 1.776 1.659 1.776.512 0 .98-.309 1.211-.715l.721.369c-.367.589-.966 1.113-1.932 1.113-1.421 0-2.523-1.032-2.523-2.542zM40.205 25.587l-.353-.951h-2.207l-.353.951h-.959l1.89-4.916h1.053l1.889 4.916h-.96zm-1.456-4.053-.865 2.344h1.73l-.865-2.344zM42.407 25.588v-4.157h-1.456v-.759h3.757v.759h-1.457v4.157h-.844zM45.467 25.587v-4.916h3.295v.759h-2.451v1.268h2.401v.759h-2.401v1.371h2.451v.759h-3.295zM51.369 23.134c0-1.467 1.016-2.543 2.458-2.543 1.435 0 2.459 1.076 2.459 2.543s-1.024 2.543-2.459 2.543c-1.442-.001-2.458-1.077-2.458-2.543zm4.052 0c0-1.017-.628-1.777-1.594-1.777-.973 0-1.593.759-1.593 1.777 0 1.01.62 1.776 1.593 1.776.966 0 1.594-.766 1.594-1.776zM57.14 25.587v-4.916h3.295v.759h-2.451v1.268h2.401v.759h-2.401v2.13h-.843zM64.296 25.588v-4.157h-1.457v-.759h3.757v.759h-1.457v4.157h-.844zM70.247 25.587l-1.06-1.835h-.844v1.835h-.844v-4.916h2.113c.952 0 1.579.627 1.579 1.54 0 .87-.563 1.349-1.146 1.445l1.183 1.931-.981.001zm.079-3.383c0-.472-.346-.774-.822-.774h-1.161v1.562h1.161c.475 0 .822-.309.822-.788zM71.937 23.642v-2.97h.858v2.948c0 .781.426 1.29 1.226 1.29s1.226-.509 1.226-1.29v-2.948h.858v2.97c0 1.216-.685 2.034-2.084 2.034-1.392 0-2.084-.818-2.084-2.034zM76.72 24.895l.476-.671c.324.361.851.685 1.521.685.692 0 .959-.346.959-.678 0-1.032-2.798-.39-2.798-2.196 0-.819.692-1.445 1.753-1.445.743 0 1.356.251 1.795.692l-.476.641a1.94 1.94 0 0 0-1.399-.567c-.49 0-.808.251-.808.612 0 .921 2.798.354 2.798 2.182 0 .819-.569 1.526-1.86 1.526-.887 0-1.528-.325-1.961-.781zM82.433 25.588v-4.157h-1.457v-.759h3.757v.759h-1.457v4.157h-.844z" style="fill:var(--color2, #fff)"/>
    </symbol>
    <symbol id="icon-bank_transfer" viewBox="0 0 64 32">
      <path d="M10.403 6.4c3.058 1.27 6.088 2.615 9.143 3.892.016.84.008 1.681.008 2.523-6.075-.003-12.152-.002-18.229-.002-.01-.834.003-1.667-.015-2.5C4.335 9.002 7.364 7.682 10.402 6.4zM34.643 12.174l1.2-.003c.73 1.239 1.419 2.5 2.161 3.733-.008-1.245-.002-2.489-.007-3.733l1.011.003c.008 1.773-.002 3.546.007 5.318l-1.16-.008c-.717-1.273-1.457-2.534-2.195-3.796.016 1.268.002 2.534.015 3.802h-1.037c.008-1.771-.002-3.544.007-5.317zm5.433 0 1.129-.002c-.005.745-.003 1.492-.003 2.237.687-.753 1.398-1.486 2.096-2.229.481-.007.962-.01 1.444-.01-.725.72-1.57 1.387-2.213 2.173.735 1.048 1.524 2.065 2.281 3.1-.464-.029-1.037.056-1.472-.074-.578-.731-1.076-1.529-1.618-2.286l-.566.539a91.11 91.11 0 0 0-.001 1.811l-1.076-.003c.002-1.752-.002-3.505 0-5.257zM2.361 13.479c1.322.013 2.645-.003 3.966.009.002.311.002.623.003.936l-.699.015c-.007 2.362-.003 4.722-.002 7.083l.695.01.005.876c-1.322.015-2.646-.002-3.968.01.002-.302.002-.605.002-.908l.732.021c.003-2.368.002-4.736.002-7.104l-.733.009c0-.319 0-.637-.002-.956zm6.116.018c1.308-.039 2.62.005 3.929-.018l.002.955-.671-.006c-.01 2.368.006 4.736-.01 7.104l.681-.024v.911c-1.316-.008-2.63-.006-3.944-.002 0-.297 0-.594-.002-.891.225-.002.448-.003.673-.003.005-2.362-.005-4.725.005-7.086-.225-.002-.448-.005-.673-.006-.003-.311-.013-.624.01-.934zm6.019-.013c1.336-.003 2.669.006 4.003-.006.002.319.002.639.002.958-.236-.002-.471-.005-.707-.006 0 2.366-.002 4.733 0 7.101l.709-.019-.003.908a333.837 333.837 0 0 0-4.003-.002l-.005-.903.742.014c-.01-2.368-.002-4.734-.005-7.101l-.735.008c0-.318.002-.634.003-.952zM30.646 15.467c.187-.528.375-1.055.555-1.586l.189-.557c.24.711.454 1.431.694 2.142h-1.437zm1.361-3.294c-.418-.002-.843-.019-1.258.021-.684 1.719-1.262 3.504-1.906 5.241.384-.002.768-.006 1.151-.011.117-.353.233-.707.348-1.06l2.031-.006c.105.379.21.756.319 1.135.4-.002.802-.003 1.204-.002-.647-1.766-1.262-3.545-1.888-5.318zm-5.386 4.292c-.573.166-1.239.079-1.833.089-.003-.494-.005-.985-.003-1.477.659.026 1.521-.094 2.116.224.323.347.184.995-.28 1.165zm.004-3.314c.464.153.42.897-.023 1.032-.576.142-1.221.081-1.811.085-.003-.391-.005-.782-.005-1.173.602.015 1.248-.068 1.839.055zm.804 1.469c.491-.402.679-.695.587-1.35-.095-.742-.837-1.081-1.519-1.136-.924-.053-1.854-.005-2.781-.021.021 1.773.008 3.546.008 5.318.971-.011 1.946.028 2.915-.016.433-.018.824-.149 1.106-.484.617-.676.563-1.868-.317-2.311zm20.916 4.265c.474.319.581.784.707 1.302-.349.002-.699.002-1.048-.002-.166-.279-.248-.568-.584-.689-.359-.105-.797-.121-1.155-.002-.377.163-.556.584-.3.931.819.44 1.89.434 2.7.885.566.35.607 1.058.466 1.637-.176.563-.666.894-1.221 1.044-.879.227-1.936.136-2.672-.427-.422-.332-.471-.774-.568-1.261.362-.002.725-.002 1.086.003.13.269.174.626.489.748.464.118 1.045.166 1.503-.003.396-.189.545-.708.151-.978-.75-.423-2-.315-2.708-.895-.712-.621-.489-1.976.368-2.387.794-.432 2.041-.44 2.788.094zm-24.811-.287c1.478-.032 2.958-.008 4.438-.013 0 .313 0 .626.002.939-.547-.006-1.091-.008-1.637-.008-.002 1.469.002 2.939 0 4.408h-1.176c-.002-1.469 0-2.939 0-4.41-.548.003-1.096.003-1.644.003.006-.307.011-.613.018-.919zm15.99-.013 1.194-.003c.714 1.237 1.408 2.486 2.143 3.71.019-1.236.002-2.473.01-3.708h1.017c.003 1.781.003 3.56.002 5.341-.381 0-.76 0-1.139.002-.736-1.266-1.457-2.54-2.205-3.8a165.896 165.896 0 0 0-.005 3.799h-1.022c.011-1.779.001-3.559.005-5.339zm10.5 0c1.272-.005 2.541 0 3.813-.003l.013.939c-.914-.006-1.828-.003-2.74-.005l-.004 1.221c.791.002 1.582.002 2.372-.002l-.002.903a64.137 64.137 0 0 0-2.362-.005c-.008.742-.006 1.486-.005 2.228-.364 0-.727 0-1.09.002.008-1.76 0-3.518.003-5.278zm4.634 0c1.311-.003 2.623 0 3.934-.003l.003.937c-.955-.003-1.911-.003-2.868 0 .002.387.002.773.002 1.16.877-.007 1.754-.009 2.63-.005v.898c-.878 0-1.756-.003-2.633.002.002.461.002.924 0 1.386.999-.005 1.998-.003 2.998-.003l.003.968h-4.074c.006-1.779 0-3.56.005-5.339zM31.501 20.94c-.568.102-1.18.031-1.757.043.002-.487.003-.976.003-1.463.545.005 1.117-.05 1.654.044.491.255.64 1.094.1 1.376zm1.192.921c-.133-.185-.355-.316-.535-.456.842-.384 1.048-1.411.548-2.142-.33-.51-.878-.632-1.454-.666-.863-.037-1.729-.002-2.594-.015-.028 1.781.006 3.562-.02 5.342h1.116a98.472 98.472 0 0 1-.007-2.105c.505.058 1.56-.194 1.862.303.175.552.085 1.223.144 1.802.433-.002.866 0 1.299.01-.359-.687-.041-1.4-.361-2.073zm29.82-.906c-.563.072-1.147.022-1.714.029-.002-.487-.002-.974 0-1.462.559.007 1.201-.074 1.738.102.446.236.523 1.161-.023 1.331zm1.242 1c-.082-.287-.369-.429-.587-.61.239-.174.5-.308.641-.576.336-.634.112-1.513-.502-1.905-.479-.286-.996-.321-1.544-.324-.722 0-1.442.006-2.164.003 0 1.773.008 3.547-.005 5.32l1.088-.005a114.81 114.81 0 0 1-.004-2.116c.53.042 1.352-.126 1.794.202.297.531.142 1.316.261 1.916.434 0 .868.003 1.302.016-.288-.634-.098-1.278-.28-1.921zm-28.224-.063c.254-.668.443-1.36.723-2.018.356.595.453 1.373.71 2.019-.479-.002-.956-.002-1.434-.002zm1.331-3.315c-.394.002-.792-.013-1.184.024-.138.149-.195.376-.271.562a219.126 219.126 0 0 1-1.695 4.763c.386-.002.771-.002 1.157-.002.123-.363.248-.724.374-1.087.672-.002 1.345-.002 2.018 0l.31 1.086 1.206.003c-.66-1.776-1.25-3.574-1.915-5.349zM1.32 23.139c6.079.008 12.157.002 18.235.003 0 .3 0 .602.002.902-6.079-.005-12.157-.002-18.235-.002-.002-.302-.002-.602-.002-.903zM.038 24.713c6.932-.002 13.863-.003 20.793 0v.886c-6.931 0-13.865-.007-20.796.002.002-.295.003-.592.003-.887z"/>
    </symbol>
    <symbol id="icon-casinoguru" viewBox="0 0 69 32">
      <path fill="#44be4c" d="M29.363 13.804c-.542.111-1.043.167-2.14.167-1.585 0-3.4-.876-3.4-4.073v-.445c0-3.239 1.815-4.073 3.4-4.073.813 0 1.598.125 2.153.209.122.014.203.056.203.167v.667c0 .083-.027.139-.149.139h-.041c-.461-.042-1.409-.125-2.153-.125-1.26 0-2.235.751-2.235 2.989v.445c0 2.21.975 2.989 2.235 2.989.731 0 1.652-.07 2.126-.111h.054c.135 0 .203.069.203.209v.542c0 .209-.108.278-.257.306zM38.939 13.888h-.759c-.122 0-.19-.083-.217-.167l-.84-2.613h-3.332l-.826 2.613a.237.237 0 0 1-.23.167h-.759c-.122 0-.217-.083-.217-.181 0-.028 0-.056.014-.083l2.384-7.409c.217-.695.826-.862 1.314-.862.474 0 1.084.153 1.3.848l2.384 7.423a.176.176 0 0 1 .014.083c-.014.097-.081.181-.23.181zM35.716 6.45c-.041-.125-.122-.209-.244-.209-.135 0-.217.083-.257.209l-1.151 3.684h2.804L35.717 6.45zM49.084 13.887h-.704c-.122 0-.23-.125-.23-.264V5.727c0-.125.095-.25.23-.25h.704c.122 0 .23.111.23.25v7.896c0 .139-.095.264-.23.264zM58.158 13.887h-.799c-.203 0-.352-.083-.406-.209l-3.968-6.353c-.014-.028-.027-.042-.041-.042s-.014.014-.014.042v6.311c0 .125-.108.25-.23.25h-.664c-.122 0-.23-.028-.23-.153V5.851c0-.209.162-.375.379-.375h.704c.366 0 .42.069.528.264l3.968 6.353c.014 0 .014-.028.014-.042V5.726c0-.125.108-.25.23-.25h.677c.135 0 .23.125.23.25v7.771c-.014.222-.176.389-.379.389zM64.307 13.985c-2.018 0-3.481-1.209-3.481-4.143v-.306c0-2.933 1.463-4.143 3.481-4.143s3.467 1.209 3.467 4.143v.306c0 2.919-1.449 4.143-3.467 4.143zm2.289-4.449c0-2.21-.88-3.058-2.289-3.058-1.395 0-2.303.848-2.303 3.058v.306c0 2.21.88 3.058 2.303 3.058 1.395 0 2.289-.848 2.289-3.058v-.306z" style="fill:var(--color3, #44be4c)"/>
      <path d="M21.494 12.567c-1.084-.334-4.05-.778-6.704-.778-3.264 0-8.045 1.154-8.045 8.535v2.141c0 7.256 4.686 8.535 7.801 8.535 2.303 0 5.445-.375 6.948-.709.447-.097.515-.125.515-.556v-8.827a.521.521 0 0 0-.515-.528h-6.136a.478.478 0 0 0-.488.473v2.21c0 .264.217.473.488.473h1.476c.081 0 .149.069.149.153v1.96c0 .111-.081.209-.19.209-.569.042-2.045.056-2.235.056-.731 0-1.937-.097-1.937-3.392v-2.196c0-2.766 1.503-3.378 4.646-3.295 1.517.042 3.603.153 4.348.25.339.056.42-.07.42-.459v-3.698c-.027-.334-.041-.403-.542-.556zM37.056 15.25h-3.955a.413.413 0 0 0-.406.417v9.105c0 1.64-.975 2.002-2.032 2.002s-2.032-.348-2.032-2.002v-9.105a.423.423 0 0 0-.406-.417H24.27a.424.424 0 0 0-.42.417v9.105c0 5.352 3.67 6.172 6.826 6.172 3.142 0 6.826-.806 6.826-6.172v-9.105a.45.45 0 0 0-.447-.417zM67.178 15.25h-3.955a.413.413 0 0 0-.406.417v9.105c0 1.64-.975 2.002-2.032 2.002s-2.032-.348-2.032-2.002v-9.105a.423.423 0 0 0-.406-.417h-3.955a.424.424 0 0 0-.42.417v9.105c0 5.352 3.671 6.172 6.826 6.172 3.142 0 6.826-.806 6.826-6.172v-9.105a.469.469 0 0 0-.447-.417zM49.856 24.689c1.097-.5 2.33-1.807 2.33-4.045v-.417c0-3.934-2.533-5.185-6.623-5.185-1.395 0-4.429.139-5.12.25-1.097.195-1.422.473-1.422 1.765v13.262c0 .222.203.417.42.417h3.955a.422.422 0 0 0 .406-.417v-4.893h1.327l2.411 4.893c.108.209.19.417.542.417h4.239a.36.36 0 0 0 .366-.375.452.452 0 0 0-.054-.222l-2.777-5.449zm-2.438-4.017c0 .57-.393 1.098-1.395 1.098h-2.194v-2.627h2.194c1.029 0 1.395.389 1.395 1.098v.431z" style="fill:var(--color4, #000)"/>
      <path fill="#44be4c" d="m44.099 9.37-1.178-.612c-.853-.5-1.233-.82-1.233-1.321 0-.737.515-1.029 1.774-1.029.501 0 1.165.028 1.964.083h.027c.135 0 .23-.083.23-.209v-.487c0-.083-.041-.181-.217-.222a16.241 16.241 0 0 0-1.991-.153c-1.855 0-2.885.709-2.885 2.002 0 .973.637 1.543 1.598 2.113l1.233.653c1.002.598 1.354.918 1.354 1.474 0 .862-.596 1.293-1.828 1.293-.515 0-1.341-.042-1.883-.083h-.041c-.135 0-.23.083-.23.209v.445c0 .139.041.195.244.236h.014c.515.083 1.097.167 1.896.167 2.763 0 2.98-1.738 2.98-2.266-.014-.904-.501-1.529-1.829-2.294zM5.309 19.629a.265.265 0 0 1-.176-.056c-1.449-.931-2.032-2.586-1.652-4.81.23-1.362 1.395-3.295 2.641-4.421.515-.459.975-.834 1.395-1.126a3.404 3.404 0 0 1-.149-.32 1.604 1.604 0 0 1-.257.334c-.46.445-.664.542-.826.542h-.041c-.027.028-.122.111-.366.431l-.041.042c-.907 1.112-1.761 2.169-2.248 3.211-.704 1.501-.569 3.017-.42 3.795.014.097 0 .209-.068.278-.068.083-.163.125-.257.125s-.176-.042-.244-.111c-1.815-2.03-2.275-5.7 1.937-9.898l.027-.014a28.626 28.626 0 0 1 1.883-1.432c-.014-.042-.014-.097-.014-.139-.257.181-.582.403-.989.695-2.465 1.988-3.887 4.087-4.226 6.214a.337.337 0 0 1-.325.292.35.35 0 0 1-.298-.181c-.867-1.613.122-3.044.542-3.656.027-.042.068-.097.081-.125l.014-.014C2.83 7.214 5.146 5.81 5.959 5.49a3.08 3.08 0 0 1 .433-.139v-.083c-1.341.473-3.589 2.113-4.835 3.517a.338.338 0 0 1-.244.111.346.346 0 0 1-.339-.334c-.041-1.251 1.029-2.572 1.598-3.1.352-.32 1.327-.987 2.357-1.626a25.4 25.4 0 0 0-1.233.667.334.334 0 0 1-.461-.139c-.054-.112-.054-.25.027-.348.718-1.056 2.154-1.988 3.21-2.363a1.12 1.12 0 0 1 .312-.056c.203 0 .433.056.664.181l.217-.028-.027-.028a.582.582 0 0 1-.108-.445c.027-.125.108-.236.23-.264C8.275.86 9.71.638 11.322.638c1.503 0 3.576.195 4.957 1.112.122.083.176.236.136.389s-.176.25-.325.25h-.054a4.833 4.833 0 0 0-.948-.097c-.339 0-.691.042-1.097.139-.027 0-.054.014-.068.014-.041 0-.081 0-.108-.014a9.16 9.16 0 0 0-.474-.153.34.34 0 0 1 .095.25.352.352 0 0 1-.257.306c-.853.222-1.828.626-2.411.973l.352.361c1.558-1.14 3.047-1.71 4.456-1.71 1.49 0 2.438.639 2.844.917.799.528 1.273 1.793 1.219 3.225-.014.181-.149.334-.339.334a.29.29 0 0 1-.176-.056c-1.693-1.029-3.725-1.168-5.309-1.168-.352 0-.704.014-1.002.014h-.136a.274.274 0 0 1 .068.125c.461-.028.88-.056 1.26-.056 2.045 0 3.711.473 5.391 1.529.907.598 1.287 1.696 1.205 3.448-.014.181-.163.334-.325.334-.027 0-.054 0-.081-.014.068.153.122.334.149.514a.425.425 0 0 1-.095.334.338.338 0 0 1-.244.111h-.054c-.406-.069-.555-.083-.935-.139-.122-.014-.19-.111-.217-.153-.298-.445-2.018-2.155-4.944-2.335h-.014l-.488.375h.163c1.056 0 3.034.181 4.293 1.348.095.097.136.236.081.375s-.176.222-.325.222h-.027a15.162 15.162 0 0 0-1.612-.083c-.84 0-1.612.069-2.059.167a3.597 3.597 0 0 1-.366.083c-1.571.32-5.269 1.084-6.718 6.2-.054.181-.23.292-.474.292-.284 0-.582-.139-.623-.417-.19-1.154-.041-3.503 3.21-6.297l-.149-.278-.122.139c-.163.181-.352.361-.542.57-1.436 1.487-3.413 3.517-2.384 7.104a.353.353 0 0 1-.054.306c-.135.042-.23.097-.339.097z" style="fill:var(--color3, #44be4c)"/>
      <path d="M11.268.834c1.693 0 3.589.236 4.835 1.07.108.07.054.25-.068.25h-.027c-.339-.056-.65-.097-.989-.097s-.691.042-1.138.139h-.027c-.013 0-.027 0-.041-.014-1.083-.389-2.005-.528-2.912-.528-.46 0-.921.028-1.409.083a.137.137 0 0 0-.108.195l.027.056c.027.042.068.083.122.083.325-.014.88-.07 1.476-.07.704 0 1.476.07 2.045.334.135.056.108.209-.027.25-.894.236-1.937.667-2.546 1.043a.142.142 0 0 0-.041.195l.46.473c.027.028.068.056.108.056.027 0 .054-.014.081-.028 1.774-1.307 3.237-1.71 4.388-1.71 1.409 0 2.343.612 2.736.876.799.528 1.178 1.793 1.124 3.03 0 .083-.068.125-.136.125-.027 0-.041 0-.068-.014-1.707-1.043-3.765-1.196-5.418-1.196-.488 0-.935.014-1.341.014-.122 0-.176.153-.081.236l.122.097c.014.014.027.042.041.056l.014.056c.014.056.068.083.122.083h.014a20.18 20.18 0 0 1 1.3-.056c1.72 0 3.413.32 5.296 1.501.759.5 1.192 1.432 1.111 3.267 0 .069-.068.125-.122.125h-.027c-.447-.111-.826-1.237-1.828-1.613-.014 0-.027-.014-.041-.014-.108 0-.176.153-.081.236.609.542 1.693 1.056 1.842 2.141.014.097-.041.209-.122.209h-.014c-.42-.069-.569-.083-.935-.139-.027 0-.054-.028-.068-.056-.23-.348-1.937-2.238-5.106-2.419-.027 0-.054-.014-.068-.014l-.745.57c-.108.083-.054.236.081.236.122 0 .244-.014.379-.014 1.327 0 3.061.278 4.158 1.293.095.083.027.236-.095.236h-.014a15.993 15.993 0 0 0-1.625-.083c-.867 0-1.652.069-2.099.181-1.165.292-5.607.709-7.232 6.422-.027.097-.149.153-.284.153-.19 0-.406-.097-.433-.25-.19-1.098-.041-3.378 3.183-6.13.054-.042.068-.111.027-.167-.068-.125-.135-.264-.23-.431a.14.14 0 0 0-.122-.069.12.12 0 0 0-.095.042c-.068.069-.122.139-.19.209-1.381 1.529-4.172 3.684-2.966 7.868.027.097-.041.181-.122.181-.027 0-.041 0-.068-.014-1.476-.931-1.896-2.613-1.558-4.601.203-1.251 1.3-3.169 2.573-4.295.555-.5 1.029-.876 1.422-1.154a.136.136 0 0 0 .041-.167 9.312 9.312 0 0 1-.244-.514c-.027-.056-.068-.083-.122-.083-.041 0-.095.028-.108.069a1.213 1.213 0 0 1-.284.403c-.447.445-.596.487-.691.487h-.054c-.081 0-.163.042-.515.514-.921 1.14-1.801 2.21-2.316 3.295-.65 1.39-.637 2.864-.433 3.92.014.097-.054.167-.135.167a.144.144 0 0 1-.095-.042c-1.422-1.585-2.6-5.088 1.923-9.606l.014-.014c.609-.528 1.422-1.112 1.896-1.46a.132.132 0 0 0 .054-.139 3.336 3.336 0 0 1-.054-.528c-.217.153-.609.431-1.287.89h-.014C1.837 9.286 1.16 11.65.971 12.873a.132.132 0 0 1-.135.111.16.16 0 0 1-.122-.07c-.867-1.626.271-3.044.623-3.573v-.014c1.612-2.085 3.887-3.434 4.632-3.726.19-.069.339-.111.46-.139.068-.014.108-.069.108-.139v-.236a.138.138 0 0 0-.135-.139c-.014 0-.041 0-.054.014-.027.014-.041.014-.068.028-1.409.487-3.711 2.196-4.93 3.573a.144.144 0 0 1-.095.042c-.068 0-.135-.056-.135-.125-.027-1.154.989-2.433 1.53-2.933.528-.487 2.614-1.835 3.982-2.586.041-.014.054-.056.068-.097l.041-.195c-.068.028-.122.056-.176.07-.393.125-2.045.931-3.02 1.501-.027.014-.041.014-.068.014-.095 0-.176-.111-.108-.209.664-.987 2.045-1.904 3.115-2.28a.746.746 0 0 1 .244-.042c.217 0 .42.083.596.167.014.014.041.014.054.014h.014l.989-.139.014-.028c-.718-.042-.745-.375-.718-.528.014-.056.041-.083.095-.097.447-.042 1.869-.278 3.494-.278zm0-.417c-1.625 0-3.102.222-3.616.375a.533.533 0 0 0-.379.431.835.835 0 0 0 0 .264 1.585 1.585 0 0 0-.542-.111c-.135 0-.257.014-.379.056-1.084.375-2.573 1.348-3.318 2.447a.61.61 0 0 0-.041.57.633.633 0 0 0 .203.222c-.366.25-.65.473-.813.626C1.787 5.839.69 7.229.717 8.55c0 .236.149.431.366.5-.014.028-.041.042-.054.069-.014.014-.014.028-.027.028l-.081.125c-.447.639-1.476 2.141-.555 3.878a.53.53 0 0 0 .474.292.432.432 0 0 0 .23-.056c-.014.097-.014.181-.027.278-.108 2.03.813 3.378 1.381 4.004a.551.551 0 0 0 .393.181.52.52 0 0 0 .42-.209.485.485 0 0 0 .108-.222c.271.987.826 1.765 1.679 2.308a.487.487 0 0 0 .284.083c.163 0 .325-.083.433-.222s.135-.32.081-.487c-.068-.25-.135-.5-.176-.737a.992.992 0 0 0 .596.195c.339 0 .596-.167.664-.445 1.422-4.991 5.025-5.741 6.569-6.061a6.4 6.4 0 0 0 .379-.083c.42-.111 1.178-.167 2.005-.167.528 0 1.084.028 1.585.069h.054c.23 0 .433-.139.515-.361.027-.083.041-.181.027-.278.271.236.447.445.528.556.095.139.217.222.352.236.379.056.515.069.935.139h.081a.525.525 0 0 0 .393-.181.656.656 0 0 0 .135-.5 2.084 2.084 0 0 0-.068-.306.565.565 0 0 0 .339-.487c.095-1.835-.325-2.989-1.3-3.628-.027-.014-.041-.028-.068-.042a.565.565 0 0 0 .393-.514c.068-1.515-.433-2.822-1.3-3.406-.298-.195-.962-.639-1.937-.848a.57.57 0 0 0-.176-.751C14.911.624 12.785.43 11.268.416zm-.257 3.392.325-.167c-.095.07-.19.139-.298.209l-.027-.042z" style="fill:var(--color4, #000)"/>
      <path fill="#fcee21" d="M9.819 13.832c-.257 0-.46-.07-.596-.209-.203-.209-.19-.514-.176-.737v-.139a4.452 4.452 0 0 1 0-.626c0-.667 0-1.779-.068-3.489v-.125l.095-.069c.081-.056.772-.528 1.205-.528.176 0 .284.083.339.153l.704.862c.84 1.015 1.977 2.419 2.194 2.725.176.25.163.459.136.598-.081.306-.379.473-.542.542-.041.014-.975.431-1.91.681-.609.25-1.056.361-1.381.361z" style="fill:var(--color5, #fcee21)"/>
      <path d="M10.266 8.132c.081 0 .135.014.176.069.23.292 2.587 3.142 2.885 3.587s-.068.723-.325.834c-.257.111-1.097.459-1.896.681-.61.236-1.016.334-1.287.334-.718 0-.542-.612-.555-.89-.027-.389.041-1.626-.081-4.115 0-.014.704-.5 1.084-.5zm0-.417c-.46 0-1.124.431-1.314.556l-.19.125.014.236c.081 1.71.081 2.822.068 3.489v.764c-.014.223-.027.598.23.89.176.181.42.278.731.278.352 0 .813-.111 1.422-.348.962-.264 1.896-.681 1.937-.695.203-.083.555-.292.664-.681.054-.181.054-.459-.163-.778-.203-.292-1.151-1.46-2.208-2.739-.352-.431-.637-.778-.704-.862a.572.572 0 0 0-.488-.236z" style="fill:var(--color4, #000)"/>
      <path fill="#fcee21" d="M7.693 11.58c-.84 0-1.72-.445-2.289-1.168-.542-.681-.745-1.501-.569-2.322l.041-.167c.244-1.182.975-4.796 2.099-7.451l.081-.195.19.083c1.192.57 6.163 4.879 6.596 5.324.677.695.867 1.668.488 2.6-.406 1.001-1.314 1.64-2.343 1.64-.623 0-1.246-.236-1.856-.695-.339 1.487-1.233 2.349-2.438 2.349z" style="fill:var(--color5, #fcee21)"/>
      <path d="M7.151.556c1.178.556 6.136 4.879 6.528 5.282 1.409 1.446.203 3.878-1.707 3.878-.609 0-1.287-.25-1.977-.862-.298 1.807-1.287 2.516-2.303 2.516-1.476 0-3.02-1.487-2.668-3.239.203-.931.962-4.796 2.126-7.576zM6.948 0l-.163.389C5.661 3.072 4.916 6.686 4.672 7.882l-.041.167c-.176.876.041 1.765.609 2.502.609.765 1.544 1.251 2.451 1.251 1.219 0 2.14-.82 2.56-2.224.555.361 1.151.556 1.734.556 1.097 0 2.099-.695 2.533-1.779.406-1.001.203-2.071-.528-2.822C13.543 5.074 8.586.765 7.34.167L6.947 0z" style="fill:var(--color4, #000)"/>
    </symbol>
    <symbol id="icon-coinspaid" viewBox="0 0 64 32">
      <path d="M16.68 9.714V7.958c0-1.243.762-1.958 2.17-1.958.597 0 1.092.163 1.478.482s.583.793.583 1.436v.078h-1.225v-.078c0-.56-.401-.816-.912-.816-.582 0-.873.257-.873.77v1.929c0 .512.291.769.873.77.526 0 .912-.233.912-.817v-.078h1.225v.078c0 .645-.196 1.127-.581 1.446s-.88.474-1.477.474c-1.409 0-2.171-.715-2.171-1.958zM21.864 11.556V6.117h2.389c1.132 0 1.735.622 1.735 1.709 0 .738-.291 1.267-.88 1.57l1.038 1.766v.396h-1.185L23.814 9.54h-.731v2.018l-1.218-.002zm1.218-3.023h.967c.471 0 .707-.194.707-.692 0-.489-.236-.676-.707-.676h-.967v1.368zM28.584 11.556V9.403l-1.768-2.891v-.396h1.202l1.187 2.16 1.25-2.16h1.123v.396L29.81 9.356v2.199h-1.226zM32.288 11.556V6.117h2.468c.982 0 1.572.66 1.572 1.709s-.589 1.702-1.572 1.702h-1.25v2.028h-1.218zm1.218-3.078h1.021c.306 0 .566-.217.566-.653s-.258-.66-.565-.66h-1.021l-.001 1.313zM38.278 11.556v-4.39h-1.517v-1.05h4.244v1.049h-1.509v4.39l-1.218.001zM46.046 9.707c0 .614-.196 1.096-.597 1.446s-.936.52-1.611.52c-.676 0-1.211-.171-1.612-.52s-.596-.832-.596-1.446V7.974c0-1.243.848-1.974 2.207-1.974s2.208.731 2.208 1.974v1.733zm-1.218-1.796c0-.443-.338-.807-.99-.807s-.99.365-.99.807v1.85c0 .443.338.807.99.807s.99-.365.99-.807v-1.85zM16.969 18.894v-5.439h2.468c.983 0 1.572.66 1.572 1.709s-.589 1.702-1.572 1.702h-1.25v2.028h-1.218zm1.218-3.078h1.021c.306 0 .566-.218.566-.653s-.259-.66-.566-.66h-1.021v1.313zm3.679 3.078v-5.439h2.389c1.132 0 1.735.622 1.735 1.709 0 .738-.291 1.266-.88 1.57l1.038 1.766v.396h-1.185l-1.147-2.019h-.731v2.018l-1.218-.002zm1.218-3.023h.967c.471 0 .707-.194.707-.691s-.236-.676-.707-.676h-.967v1.368zm8.229 1.173c0 .614-.196 1.096-.597 1.445s-.936.521-1.611.521c-.676 0-1.21-.171-1.612-.521s-.597-.831-.597-1.445v-1.733c0-1.243.849-1.973 2.209-1.973s2.208.73 2.208 1.973v1.733zm-1.217-1.795c0-.443-.338-.807-.99-.807s-.991.365-.991.807v1.852c0 .442.338.807.991.807s.99-.365.99-.807v-1.852zM32.208 17.05v-1.756c0-1.243.762-1.958 2.169-1.958.598 0 1.093.163 1.48.482s.581.792.581 1.437v.079h-1.225v-.078c0-.56-.401-.816-.912-.816-.581 0-.872.256-.872.769v1.927c0 .513.291.769.872.769.527 0 .912-.233.912-.816v-.078h1.225v.078c0 .645-.196 1.127-.581 1.446s-.88.474-1.48.474c-1.407 0-2.169-.715-2.169-1.96zm5.195 1.843v-5.439h3.623v1.049h-2.405v1.166h2.041v1.003h-2.041v1.173h2.42v1.049h-3.639zm4.885-.373c-.416-.326-.621-.793-.621-1.391h1.219a.677.677 0 0 0 .18.482c.252.241.55.295.904.295.527 0 .802-.202.802-.521a.364.364 0 0 0-.22-.341c-.149-.086-.424-.194-.833-.327l-.44-.148c-.408-.132-.668-.248-.99-.489-.314-.241-.488-.605-.488-1.072 0-.505.181-.908.55-1.211s.872-.458 1.509-.458c.621 0 1.122.155 1.509.474s.574.777.574 1.384h-1.225c0-.498-.385-.754-.888-.754s-.794.186-.794.505c0 .171.079.256.196.35.059.05.2.101.288.133l.018.007.4.14.408.14c1.061.365 1.659.77 1.659 1.609 0 1.018-.755 1.686-2.144 1.686-.631-.001-1.158-.164-1.574-.49zm4.964 0c-.416-.326-.62-.793-.62-1.391h1.218a.674.674 0 0 0 .181.482c.252.241.55.295.904.295.527 0 .802-.202.802-.521a.364.364 0 0 0-.22-.341c-.15-.086-.425-.194-.833-.327l-.441-.148c-.408-.132-.668-.248-.99-.489-.314-.241-.487-.605-.487-1.072 0-.505.181-.908.55-1.211s.872-.458 1.509-.458c.62 0 1.123.155 1.509.474s.574.777.574 1.384h-1.225c0-.498-.385-.754-.888-.754s-.794.186-.794.505c0 .171.078.256.196.35.058.05.2.101.288.133l.018.007.401.14.408.14c1.061.365 1.658.77 1.658 1.609 0 1.018-.754 1.686-2.143 1.686-.632-.001-1.159-.164-1.576-.49zm4.7.373v-5.439h1.218v5.439h-1.218zm2.428 0v-5.439h1.116l1.957 3.192v-3.192h1.218v5.439h-1.116l-1.957-3.194v3.194H54.38zm5.887-.411c-.362-.358-.542-.832-.542-1.43v-1.756c0-1.236.81-1.958 2.2-1.958.621 0 1.123.163 1.518.497s.591.801.591 1.399h-1.225c0-.489-.377-.792-.951-.792-.605 0-.912.303-.912.8v1.808c0 .498.33.855.896.855a1.207 1.207 0 0 0 1.005-.505v-.482h-.943v-1.001h2.129v2.977h-.652l-.251-.482c-.275.365-.802.598-1.368.598-.631-.001-1.126-.18-1.495-.529zM16.68 25.27v-3.205h.598v.99a.949.949 0 0 1 .639-.223c.497 0 .855.303.855.873v.745c0 .569-.357.873-.855.873a1.01 1.01 0 0 1-.717-.29l-.174.236-.345.001zm.597-.732c.17.168.34.252.515.252a.374.374 0 0 0 .381-.382v-.656a.368.368 0 0 0-.381-.382c-.175 0-.345.082-.516.25v.918zM19.649 25.998v-.214l.226-.514-.828-2.105v-.277h.551l.571 1.58.538-1.577h.542v.277l-1.113 2.833-.488-.002zm2.879-1.805v-1.028c0-.727.451-1.145 1.265-1.145.344 0 .63.095.855.282s.34.464.34.832v.045h-.653v-.045c0-.35-.255-.523-.584-.523-.381 0-.57.186-.57.509v1.119c0 .323.189.509.57.509.331 0 .584-.163.584-.523v-.045h.653v.045c0 .368-.115.65-.34.837s-.51.277-.855.277c-.814 0-1.265-.416-1.265-1.145zM25.412 24.442v-.727c0-.523.373-.882 1.048-.882.667 0 1.044.359 1.044.882v.727c0 .523-.377.882-1.044.882-.676.001-1.048-.359-1.048-.882zm1.495-.025v-.675c0-.219-.156-.373-.446-.373s-.451.159-.451.373v.675c0 .214.157.373.451.373s.446-.156.446-.373zM28.02 25.269v-2.382h.597v2.382h-.597zm1.219 0v-2.382h.345l.175.236a.986.986 0 0 1 .714-.29c.52 0 .837.345.837.923v1.514h-.6v-1.477c0-.277-.153-.423-.372-.423-.184 0-.35.082-.502.25v1.65h-.597zm2.842-.181a.814.814 0 0 1-.307-.637h.593c.023.214.234.337.561.337.216 0 .354-.077.354-.202 0-.087-.055-.141-.161-.164l-.667-.168c-.418-.104-.63-.327-.63-.659 0-.473.368-.764.979-.764.621 0 .998.295 1.016.818h-.6c-.014-.186-.17-.281-.464-.281-.244 0-.354.082-.354.191 0 .077.069.137.207.169l.685.168c.377.091.565.303.565.645 0 .487-.395.782-1.007.782-.317.003-.575-.075-.773-.234zM34.423 25.27v-3.182h1.439c.575 0 .924.387.924 1.005s-.35 1-.924 1h-.785v1.178h-.653zm.654-1.742h.666c.217 0 .382-.151.382-.441s-.165-.436-.382-.436h-.666v.877zm2.147 1.61c-.153-.122-.23-.303-.23-.523 0-.496.331-.773.975-.773h.496v-.151c0-.214-.129-.323-.386-.323s-.386.109-.386.272h-.583c0-.491.331-.807.97-.807s.984.322.984.818v1.619h-.343l-.175-.232c-.2.189-.467.292-.744.287a.916.916 0 0 1-.578-.187zm1.241-.582v-.264h-.496c-.28 0-.377.118-.377.246 0 .168.111.252.336.252a.713.713 0 0 0 .538-.234zM39.662 25.27v-2.382h.598v2.382h-.598zM42.906 22.065v3.205h-.347l-.174-.236a1.008 1.008 0 0 1-.717.292c-.496 0-.853-.303-.853-.874v-.745c0-.569.358-.873.856-.873a.945.945 0 0 1 .637.221v-.99h.6zm-.597 1.554c-.17-.168-.34-.25-.516-.25a.374.374 0 0 0-.381.382v.656a.372.372 0 0 0 .381.382c.175 0 .345-.082.516-.252v-.918zM7.598 10.287a3.108 3.108 0 0 1 2.161-.894 6.52 6.52 0 0 1 1.322.13V6.265a9.913 9.913 0 0 0-1.3-.086h-.038c-1.334.006-2.652.282-3.873.811S3.55 8.291 2.642 9.256c-.908.966-1.606 2.105-2.051 3.348a9.53 9.53 0 0 0 .533 7.647A9.661 9.661 0 0 0 3.62 23.29c1.033.833 2.229 1.449 3.512 1.807s2.627.453 3.949.278v-3.258c-1.069.216-2.177.162-3.219-.157s-1.988-.892-2.748-1.667c-.76-.775-1.31-1.726-1.6-2.767s-.311-2.136-.06-3.187c.021-.072.073-.129.144-.129.073.006.117.045.136.129a6.262 6.262 0 0 0 1.564 2.535 6.377 6.377 0 0 0 4.482 1.835c.52-.006.91-.036 1.3-.086v-3.258c-.395.08-.799.123-1.204.129l-.096-.004v.004c-.611 0-1.208-.179-1.716-.515s-.904-.812-1.137-1.37a3.02 3.02 0 0 1 .669-3.327z"/>
    </symbol>
    <symbol id="icon-devcode-flexepin" viewBox="0 0 56 32">
      <path d="M6.727 8.095c-.17.495-.345.988-.525 1.479-.497-.145-1.054-.266-1.573-.22-.363.03-.701.205-.868.533-.268.524-.2 1.055-.205 1.619H5.79l.001 1.48H3.556c-.002 2.52 0 5.04-.001 7.56H1.568c-.001-2.52.001-5.04-.001-7.56l-1.531-.001-.001-.911c.512-.195 1.022-.396 1.533-.595-.008-.808-.032-1.548.315-2.303.286-.629.853-1.077 1.528-1.255 1.066-.292 2.276-.159 3.317.174zm.782-.256 1.987-.001v12.708H7.509V7.839zm38.152.272c.386-.116.901-.095 1.226.166.366.294.407.877.273 1.291-.136.4-.529.623-.948.624-.419.021-.838-.083-1.06-.46-.294-.541-.169-1.425.51-1.622zm-31.173 3.236c.545.015 1.077.079 1.589.273a3.439 3.439 0 0 1 2.033 2.05c.345.925.284 1.819.288 2.782-2.052.002-4.105-.001-6.157.001.048.645.149 1.249.542 1.786.359.504.927.806 1.541.894 1.255.146 2.474-.117 3.618-.618-.001.529.001 1.059-.001 1.589-1.196.566-2.481.667-3.79.583-1.006-.09-1.966-.444-2.685-1.157-.769-.749-1.136-1.75-1.226-2.794-.06-.932-.02-1.845.293-2.735.294-.859.873-1.622 1.664-2.098.692-.412 1.49-.554 2.291-.556zm1.151 1.828c-.773-.526-2-.457-2.668.211-.456.466-.607 1.045-.692 1.666 1.392.003 2.785.002 4.178.001-.045-.725-.187-1.42-.818-1.878zm25.804-1.738a3.124 3.124 0 0 1 2.019 1.412c.607.943.754 2.064.771 3.157-.012.8-.084 1.572-.36 2.331-.244.697-.699 1.371-1.318 1.8-.579.403-1.278.583-1.983.575-.736.016-1.462-.153-2.067-.572-.297-.191-.495-.466-.769-.685.014.502.103.994.103 1.497-.002 1.202 0 2.406-.002 3.609h-1.986a3827.24 3827.24 0 0 1 0-5.869l-.001-1.205v-1.205c.001-1.592-.001-3.184.001-4.775l1.611.001c.103.419.189.841.292 1.26.331-.399.639-.775 1.112-1.022.76-.42 1.736-.477 2.577-.307zm-.181 1.864c-.5-.393-1.206-.427-1.811-.314-.422.085-.816.277-1.081.619-.38.481-.49 1.159-.524 1.751-.022.62-.022 1.257.084 1.87.083.468.244 1.001.591 1.348.299.313.708.472 1.136.529.501.056 1.001.041 1.437-.238.542-.326.84-.977.975-1.563a6.475 6.475 0 0 0 .037-2.427c-.115-.607-.338-1.181-.844-1.577zm12.499-1.854c.63.129 1.221.415 1.622.919.468.585.639 1.365.652 2.094v6.085h-1.988c-.001-1.919.001-3.842-.001-5.761-.015-.55-.167-1.193-.638-1.544-.482-.35-1.202-.357-1.766-.253-.574.099-1.087.427-1.356.94-.339.639-.382 1.451-.398 2.156-.004 1.487 0 2.974-.001 4.461a429.9 429.9 0 0 1-1.967 0v-9.039a399.9 399.9 0 0 1 1.549 0c.096.412.188.826.292 1.237.3-.388.628-.732 1.075-.959.889-.468 1.949-.524 2.926-.337zm-35.084.059c.754 0 1.509.001 2.264-.001.702 1.047 1.397 2.1 2.098 3.148.707-1.047 1.404-2.101 2.114-3.146h2.244c-1.029 1.481-2.073 2.951-3.107 4.429 1.087 1.537 2.171 3.075 3.261 4.61-.751.002-1.502.001-2.253.001-.753-1.116-1.5-2.236-2.259-3.348-.756 1.113-1.501 2.232-2.252 3.348h-2.251l3.245-4.612c-1.037-1.474-2.07-2.952-3.103-4.428z" style="fill:var(--color4, #000)"/>
      <path fill="#5f5f5f" d="M33.35 12.128c.639.564.869 1.502.631 2.3-.146.477-.412.923-.705 1.326-.776 1.061-2.011 1.737-3.273 2.089.216.319.404.635.803.756.439.118.953.019 1.384-.1 1.409-.44 2.582-1.25 3.662-2.219l.001 2.41a11.64 11.64 0 0 1-2.126 1.396c-1.043.51-2.18.81-3.351.636a3.243 3.243 0 0 1-2.147-1.308 3.696 3.696 0 0 1-.67-1.704c-.09-1.044-.024-2.077.365-3.062.281-.785.634-1.515 1.226-2.124.568-.584 1.313-.989 2.146-1.036.747-.052 1.496.133 2.055.637zm-1.491 1.195c-.705-.099-1.31.347-1.576.963-.267.67-.55 1.283-.505 2.021.83-.104 1.577-.563 2.077-1.212.234-.302.518-.665.455-1.068 0-.27-.173-.608-.452-.705z" style="fill:var(--color6, #5f5f5f)"/>
      <path d="M45.124 11.505h1.986c.002 3.013.001 6.027.001 9.041h-1.988c0-3.013-.001-6.027.001-9.041z" style="fill:var(--color4, #000)"/>
    </symbol>
    <symbol id="icon-devcode-jeton" viewBox="0 0 80 32">
      <path d="M72.253 10.002c.724-.003 1.448-.001 2.172-.001.002 2.245-.002 4.49.002 6.735.968-1.248 1.924-2.506 2.885-3.759.943-.003 1.885-.001 2.828-.001-1.26 1.487-2.524 2.97-3.786 4.456 1.271 1.476 2.545 2.948 3.816 4.423-.945-.001-1.89.006-2.834-.004a756.608 756.608 0 0 0-2.91-3.772c-.004 1.259 0 2.518-.002 3.776-.724-.001-1.448.001-2.172-.001V10.002zM4.811 10.669c.731 0 1.46-.001 2.191.001.002 2.559-.001 5.118.001 7.677.004.458-.029.926-.149 1.369a2.93 2.93 0 0 1-1.008 1.567c-.517.412-1.14.611-1.788.669-.626.05-1.252.001-1.846-.219a3.027 3.027 0 0 1-1.626-1.402C.274 19.745.17 19.103.17 18.442l2.171.001c.02.499.128 1.048.568 1.339.406.256 1.044.254 1.431-.042.356-.287.466-.753.469-1.196.002-2.624-.001-5.251.001-7.875zM18.369 10.779h2.19c-.001.731.001 1.462-.001 2.193.642.003 1.283 0 1.925.002v1.842c-.641.001-1.282-.001-1.923.001-.003 1.415 0 2.83-.002 4.245.001.244.026.541.213.717.169.142.429.177.64.183.357.005.715-.001 1.071.002l.001 1.891c-.653-.014-1.316.035-1.965-.035-.61-.079-1.192-.305-1.595-.8-.426-.525-.549-1.227-.553-1.891-.003-1.437.001-2.873-.002-4.31-.341-.001-.682.001-1.023-.001v-1.841c.341-.003.683.001 1.025-.003l-.001-2.193zM38.853 13.037a3.16 3.16 0 0 1 1.846 1.702c.266.599.358 1.256.355 1.91v5.206c-.725-.001-1.449.001-2.173-.001l-.001-4.945c-.003-.596-.135-1.196-.56-1.63-.43-.453-1.067-.582-1.661-.503-.48.054-.931.292-1.222.691-.305.419-.396.933-.403 1.444-.002 1.647 0 3.296-.001 4.944h-2.174c.001-2.96-.002-5.92.001-8.88.724.001 1.449-.001 2.173.001 0 .367.001.734-.001 1.101.154-.192.319-.372.512-.524.935-.745 2.197-.875 3.308-.515zM66.839 12.873a3.983 3.983 0 0 1 1.544.116 3.151 3.151 0 0 1 1.922 1.606c.305.601.424 1.314.422 1.986l-.001 5.271c-.724-.001-1.447.001-2.17-.001-.002-1.647 0-3.296-.001-4.944-.006-.597-.135-1.201-.565-1.634-.432-.453-1.068-.579-1.664-.5a1.745 1.745 0 0 0-1.218.693c-.3.41-.396.939-.4 1.441v4.944l-2.175.001v-8.88l2.174-.001c.002.366 0 .731.001 1.097a3.202 3.202 0 0 1 2.13-1.196zM16.403 14.858c.555.972.678 2.137.519 3.236h-2.695l-3.593.001c.036.352.11.692.278 1.004a1.95 1.95 0 0 0 1.437 1.016c.427.061.907.02 1.293-.188.355-.187.604-.497.781-.857.782-.003 1.565-.005 2.347.001-.332 1.137-1.141 2.107-2.211 2.579-.766.337-1.578.397-2.402.32-.97-.109-1.892-.528-2.56-1.266-.727-.782-1.092-1.811-1.154-2.878-.069-1.152.135-2.298.787-3.258.588-.877 1.519-1.449 2.534-1.644 1.035-.196 2.174-.095 3.112.419a3.736 3.736 0 0 1 1.527 1.514zm-1.666 1.723c-.019-.445-.138-.869-.438-1.202-.731-.85-2.171-.954-2.988-.18-.394.364-.581.856-.661 1.382h4.087zM28.737 13.023c.769.235 1.499.683 2.021 1.312a4.55 4.55 0 0 1 .992 2.25c.151 1.089.026 2.225-.518 3.188a4.214 4.214 0 0 1-1.88 1.79c-.892.432-1.933.522-2.899.365a4.083 4.083 0 0 1-2.598-1.583c-.618-.818-.885-1.823-.895-2.847-.016-1.005.213-2.003.789-2.83.63-.929 1.654-1.553 2.735-1.755a4.892 4.892 0 0 1 2.253.11zm-.691 1.877a2.264 2.264 0 0 0-1.307-.025 2.129 2.129 0 0 0-1.36 1.265c-.168.426-.22.905-.214 1.36.011.51.096 1.039.34 1.49.284.533.811.914 1.395 1.019a2.234 2.234 0 0 0 1.593-.292c.435-.273.753-.716.918-1.205.158-.477.182-.97.146-1.469-.041-.476-.169-.953-.451-1.341-.268-.364-.634-.661-1.059-.802zM44.752 10.001v1.828l-.001 2.437a3.257 3.257 0 0 1 1.785-1.293 3.975 3.975 0 0 1 1.674-.095 3.652 3.652 0 0 1 2.276 1.318c.547.685.889 1.544.99 2.422.119 1.113.004 2.242-.51 3.243a3.918 3.918 0 0 1-1.598 1.692c-.809.46-1.783.542-2.678.352-.786-.168-1.46-.654-1.938-1.306v1.255c-.724.001-1.448.001-2.172 0V10h2.173zm4.1 5.797a2.175 2.175 0 0 0-2.335-.933 2.24 2.24 0 0 0-1.289.893c-.297.414-.435.905-.468 1.413-.034.557.044 1.15.308 1.645.213.39.528.744.918.953a2.176 2.176 0 0 0 1.721.143c.794-.274 1.346-.994 1.522-1.818.153-.79.076-1.621-.377-2.297zM58.766 14.234v-1.258h2.19v8.879h-2.189v-1.288a3.398 3.398 0 0 1-1.672 1.254c-.524.177-1.064.201-1.612.157a3.647 3.647 0 0 1-2.405-1.306c-.586-.692-.915-1.554-1.028-2.456-.115-.953-.046-1.974.307-2.87.351-.891.986-1.672 1.834-2.105.712-.369 1.527-.477 2.315-.369.888.115 1.721.64 2.261 1.363zm-.429 1.586a2.22 2.22 0 0 0-2.376-.954c-.923.218-1.578 1.051-1.705 1.993-.084.616-.031 1.283.232 1.852.254.52.681.958 1.218 1.167a2.18 2.18 0 0 0 2.332-.485c.386-.383.618-.895.69-1.437.098-.728.022-1.513-.391-2.135z"/>
    </symbol>
    <symbol id="icon-devcode-mifinity" viewBox="0 0 80 32">
      <path d="m22.928 15.507.073-.037c.11-.773.073-1.472-.22-1.95.147.662.22 1.325.147 1.987z" style="fill:var(--color4, #000)"/>
      <path fill="#e7e6e6" d="M22.779 13.52c-.037-.037-.073-.11-.11-.147.037.11.073.184.073.294l.11.221c0-.147-.037-.258-.073-.368z" style="fill:var(--color7, #e7e6e6)"/>
      <path fill="#e7e6e6" d="M13.513 13.777c3.736-2.834 7.509-3.606 8.864-1.104.11.221.22.442.293.699.037.037.073.11.11.147-.073-.331-.22-.662-.366-.994-1.355-2.502-5.128-1.73-8.864 1.141-1.392 1.03-2.527 2.318-3.443 3.79l.037.037a13.564 13.564 0 0 1 3.37-3.717z" style="fill:var(--color7, #e7e6e6)"/>
      <path d="M22.76 13.446a.527.527 0 0 0-.055-.074c-1.355-1.803-5.641-.037-8.938 3.386-.228.229-.426.457-.647.712l-.085.098a7.03 7.03 0 0 1-.378-.203 12.24 12.24 0 0 1-3.796 2.779c-3.809 1.84-7.619 1.472-8.461-.81-.33-.883-.183-1.914.33-2.944-.22.662-.22 1.398-.037 2.098.11.368.256.699.476 1.03 0 .018.009.028.018.037s.018.018.018.037c1.099 1.656 4.725.736 8.059-2.061a16.968 16.968 0 0 0 2.161-2.134l.102.09a14.08 14.08 0 0 1 2.057-1.893c3.736-2.834 7.509-3.57 8.864-1.067.147.331.293.662.366.994a.474.474 0 0 1-.055-.074z" style="fill:var(--color4, #000)"/>
      <path fill="#2b2b2b" d="M4.321 12.784c-.183 0-.366.037-.513.11v.037h-.037c-.733.515-.769.552.037 0a5.665 5.665 0 0 0-1.319.994 8.716 8.716 0 0 0-1.648 2.171c-.037.074-.073.184-.147.258a3.723 3.723 0 0 0-.037 2.098c.11.368.256.699.476 1.03a3.432 3.432 0 0 1-.44-1.693c0-1.472 1.245-3.386 2.088-4.122.366-.331.806-.552 1.319-.589.073-.11.147-.221.22-.294z" style="fill:var(--color8, #2b2b2b)"/>
      <path d="M22.159 12.195c2.784 5.299-3.553 7.802-6.886 4.122-1.392-1.766-1.575-2.65-2.418-3.57C9.119 9.104 3.698 11.385.914 15.949c.366-.442 2.747-3.165 6.19-2.723 2.674.331 3.114 3.754 7.033 5.778 4.469 2.282 12.491-.81 8.022-6.808z" style="fill:var(--color4, #000)"/>
      <path fill="#696969" d="M14.245 18.856c-3.919-2.024-4.359-5.446-7.033-5.778-3.297-.405-5.604 2.024-6.117 2.65.696-.773 2.93-2.907 6.007-2.502 2.674.331 3.114 3.754 7.033 5.778 2.784 1.435 6.886.773 8.571-1.362-1.722 2.024-5.751 2.613-8.462 1.214z" opacity=".57" style="fill:var(--color9, #696969)"/>
      <path fill="#fff" d="M22.304 12.342c-.037-.074-.073-.11-.147-.184 2.711 5.189-3.297 7.691-6.667 4.342 3.333 3.459 9.414 1.03 6.813-4.158z" style="fill:var(--color2, #fff)"/>
      <path fill="#141414" d="M36.482 11.312c-.037-.037-.11-.037-.147-.037-.403-.11-1.355-.147-1.685.11-.037.037-.11.11-.11.184a37.762 37.762 0 0 0-2.527 3.79l-2.344-3.79v-.037c-.037-.074-.073-.11-.11-.184-.256-.221-1.099-.221-1.538-.147-.11 0-.22.037-.293.074a.48.48 0 0 0-.293.442v7.986c0 .147.073.442.549.515.147.037.33.037.476.037.33 0 1.062 0 1.062-.552V15.14c.147.258.44.736.769 1.325.44.846.733 1.362.916 1.619l.073.184c.073.11.183.221.293.331.256.147.549.184.842.147.073-.037.147-.037.183-.11a.725.725 0 0 0 .33-.331l.22-.368c.11-.184.33-.589.696-1.288s.659-1.178.842-1.509c.293-.478 0 .846 0 .92v3.717c0 .552.696.552 1.062.552.33 0 1.062 0 1.062-.552v-8.022a1.004 1.004 0 0 0-.33-.442zM39.044 14.477c-.696 0-.769.11-.769.258v5.078c0 .147.11.258.769.258s.769-.11.769-.258v-5.078c0-.11-.11-.258-.769-.258z" style="fill:var(--color10, #141414)"/>
      <path fill="#141414" d="M39.044 20.401c-.33 0-1.062 0-1.062-.552v-5.115c0-.552.696-.552 1.062-.552.33 0 1.062 0 1.062.552v5.078c-.036.589-.732.589-1.062.589zm-.477-.625c.33.037.623.037.952 0v-4.968a4.096 4.096 0 0 0-.952 0v4.968zM46.738 11.605h-4.432c-.476 0-.696.074-.696.258v7.986c0 .147.11.258.77.258s.769-.11.769-.258v-3.275h3.15c.256 0 .403-.294.403-.699 0-.442-.146-.699-.403-.699h-3.15v-2.098h3.59c.256 0 .403-.294.403-.699 0-.478-.146-.773-.403-.773z" style="fill:var(--color10, #141414)"/>
      <path fill="#141414" d="M42.414 20.401c-.33 0-1.062 0-1.062-.552v-7.986c0-.515.586-.515.989-.552h4.432c.33 0 .696.258.696.994s-.366.994-.696.994h-3.297v1.509h2.857c.33 0 .696.258.696.994s-.366.994-.696.994h-2.857v3.018c-.036.589-.732.589-1.062.589zm-.476-.625c.33.037.623.037.952 0V16.28h3.443c.037 0 .11-.147.11-.405s-.073-.405-.11-.405H42.89v-2.686h3.883c.037 0 .11-.11.11-.405s-.11-.405-.11-.405h-4.432c-.146 0-.293 0-.403.037v7.765zM58.278 11.606c-.659 0-.769.147-.769.258v5.262l-3.626-5.373v-.037c-.183-.184-1.099-.147-1.319-.037-.073.037-.146.11-.146.184v7.949c0 .074 0 .258.769.258s.769-.184.769-.258V14.55l3.626 5.373c.073.11.403.147.696.147.183 0 .403 0 .586-.074.146-.037.183-.147.183-.221v-7.912c0-.11-.073-.258-.769-.258z" style="fill:var(--color10, #141414)"/>
      <path fill="#141414" d="M58.277 20.401c-.659 0-.842-.147-.952-.294l-3.077-4.6v4.306c0 .552-.696.552-1.062.552-.33 0-1.062 0-1.062-.552v-7.949c0-.221.146-.368.33-.442.22-.074 1.318-.184 1.648.11l.036.074 3.077 4.6v-4.342c0-.552.733-.552 1.062-.552s1.062 0 1.062.552v7.949a.507.507 0 0 1-.403.478c-.183.074-.439.11-.659.11zm-.476-.662c.146.037.33.074.476.074.183 0 .33 0 .476-.037v-7.838a4.096 4.096 0 0 0-.952 0v6.146l-4.139-6.146a2.23 2.23 0 0 0-.989 0v7.838c.33.037.623.037.952 0V13.63l4.176 6.109zM61.828 11.605c-.659 0-.769.11-.769.258v7.986c0 .147.11.258.769.258s.77-.11.77-.258v-7.986c0-.147-.074-.258-.77-.258z" style="fill:var(--color10, #141414)"/>
      <path fill="#141414" d="M61.828 20.401c-.33 0-1.062 0-1.062-.552v-7.986c0-.552.696-.552 1.062-.552.33 0 1.062 0 1.062.552v7.986c0 .552-.696.552-1.062.552zm-.476-.625c.33.037.623.037.952 0v-7.838c-.146-.037-.33-.037-.476-.037s-.33 0-.476.037v7.838zM49.63 11.605c-.659 0-.769.11-.769.258v7.986c0 .147.11.258.769.258s.769-.11.769-.258v-7.986c0-.147-.11-.258-.769-.258z" style="fill:var(--color10, #141414)"/>
      <path fill="#141414" d="M49.631 20.401c-.33 0-1.062 0-1.062-.552v-7.986c0-.552.696-.552 1.062-.552.33 0 1.062 0 1.062.552v7.986c-.036.552-.732.552-1.062.552zm-.476-.625c.33.037.623.037.952 0v-7.838a4.096 4.096 0 0 0-.952 0v7.838zM70.767 11.605h-6.19c-.146 0-.256.11-.256.773s.11.773.256.773h2.344v6.698c0 .147.11.258.769.258s.769-.11.769-.258v-6.698h2.344c.146 0 .256-.11.256-.773-.037-.662-.183-.773-.293-.773z" style="fill:var(--color10, #141414)"/>
      <path fill="#141414" d="M67.654 20.401c-.33 0-1.062 0-1.062-.552v-6.403h-2.051c-.549 0-.549-.699-.549-1.067s0-1.067.549-1.067h6.19c.55 0 .55.699.55 1.067s0 1.067-.55 1.067H68.68v6.403c.037.552-.659.552-1.026.552zm-.44-.625c.33.037.623.037.952 0v-6.918h2.528a4.254 4.254 0 0 0 0-.957H64.65a4.14 4.14 0 0 0 0 .957h2.528v6.918h.036zM79.596 11.679c-.293-.11-1.355-.11-1.538.11l-1.942 3.018-1.941-3.018c-.183-.258-1.246-.221-1.538-.147-.147.037-.183.147-.183.221v.037l2.894 4.526v3.312c0 .074 0 .294.769.294s.769-.221.769-.294v-3.312L79.78 11.9v-.037c0-.037-.037-.11-.183-.184z" style="fill:var(--color10, #141414)"/>
      <path fill="#141414" d="M76.116 20.402c-.257 0-1.062 0-1.062-.589v-3.238l-2.894-4.526v-.11c0-.221.183-.442.403-.478.293-.11 1.538-.184 1.868.221l1.685 2.613 1.685-2.65c.33-.405 1.612-.331 1.868-.221.22.074.366.258.366.478v.11l-2.894 4.526v3.238c.036.626-.769.626-1.026.626zm-.477-.662c.33.074.623.074.952 0v-3.349l2.857-4.453c-.293-.074-.989-.037-1.172.074l-2.161 3.386-2.161-3.349c-.147-.11-.843-.11-1.172-.074l2.82 4.453.037 3.312zM38.714 11.386h.549c.476 0 .843.368.843.846v.589a.83.83 0 0 1-.843.846h-.549a.83.83 0 0 1-.842-.846v-.589a.83.83 0 0 1 .842-.846z" style="fill:var(--color10, #141414)"/>
    </symbol>
    <symbol id="icon-devcode-muchbetter" viewBox="0 0 80 32">
      <path fill="#636363" d="M5.631 21.45c-.189 0-.374-.05-.538-.146s-.3-.234-.395-.401l-4.516-7.91a1.121 1.121 0 0 1 .389-1.509 1.067 1.067 0 0 1 1.476.397l4.516 7.91a1.121 1.121 0 0 1-.389 1.509 1.054 1.054 0 0 1-.543.151z" style="fill:var(--color11, #636363)"/>
      <path d="M16.994 17.148c-.018-.561-.186-1.127-.505-1.697-.496-.887-1.057-1.493-1.815-1.859-.645-.311-1.367-.486-2.111-.406.26-.517.396-1.085.448-1.66.076-.841-.197-1.581-.697-2.466-.322-.568-.716-1.002-1.182-1.299s-.976-.477-1.529-.537a4.861 4.861 0 0 0-1.729.138 8.323 8.323 0 0 0-.602.179c-.078.025-.156.054-.245.087-.359.134-1.304.67-1.625.86l-1.529.977-.035.02a1.243 1.243 0 0 0-.139 2.039 1.187 1.187 0 0 0 1.333.095l.027-.015 2.53-1.477c.235-.139.479-.225.734-.257s.5-.014.738.057a2.031 2.031 0 0 1 1.185.955 2.345 2.345 0 0 1 .274 1.533c-.042.241-.131.47-.262.674s-.309.372-.531.504l-1.525.93-1.069.631a1.18 1.18 0 0 0-.125 1.935 1.122 1.122 0 0 0 1.265.085l.845-.498 2.164-1.208c.224-.13.455-.202.694-.216s.473.023.702.107a2.256 2.256 0 0 1 1.159 1.012c.132.234.218.492.252.76.034.266.021.522-.04.767-.06.246-.167.473-.322.681s-.35.381-.586.519L9.205 21.39l-.677.402-1.313.723a1.228 1.228 0 0 0-.187 2.009 1.182 1.182 0 0 0 .87.267c.155-.016.306-.063.443-.139l3.239-1.783 2.597-1.453c.583-.341 1.089-.737 1.518-1.19s.758-.939.986-1.459c.228-.52.332-1.06.314-1.621zM52.539 17.866c.7 0 1.033-.454 1.033-.999s-.333-.987-1.033-.987h-1.616v1.986h1.616zM50.924 12.6v1.861h1.516c.655 0 1.022-.375 1.022-.931s-.367-.931-1.022-.931h-1.516zm-.611 6.673c-.228 0-.511 0-.728-.221s-.216-.511-.216-.743v-6.152c0-.233 0-.522.216-.743s.5-.221.728-.221h2.249c1.549 0 2.454.885 2.454 2.27 0 .897-.583 1.475-.988 1.669.483.227 1.099.738 1.099 1.816 0 1.51-1.016 2.327-2.432 2.327h-2.382zm9.3-4.148c-.156-.352-.483-.607-.972-.607-.483 0-.816.255-.966.607a1.533 1.533 0 0 0-.128.641h2.193c-.011-.255-.033-.426-.128-.641zm-2.066 1.651c0 .766.439 1.317 1.277 1.317.361 0 .716-.102 1-.318.227-.165.366-.221.538-.221.278 0 .583.278.583.619 0 .278-.234.533-.566.76-.394.272-.938.409-1.577.409-1.372 0-2.676-.636-2.676-3.025 0-1.93 1.016-3.025 2.515-3.025 1.56 0 2.465 1.146 2.515 2.639.006.227-.022.482-.194.658-.183.187-.416.187-.633.187h-2.782zm5.031-2.111h-.144c-.272 0-.372-.017-.489-.079-.172-.091-.266-.267-.266-.488s.094-.397.266-.488c.117-.063.217-.079.489-.079h.144v-.789c0-.358.016-.499.094-.658.105-.216.333-.352.627-.352s.522.136.628.352c.078.159.094.301.094.658v.789h.433c.272 0 .372.017.488.079.172.091.267.267.267.488s-.094.397-.267.488c-.116.062-.216.079-.488.079h-.433v2.838c0 .278.1.499.466.522.183.011.311.028.433.091.178.091.289.261.289.528 0 .261-.117.437-.289.528-.128.068-.317.102-.594.102h-.078c-1.199 0-1.671-.829-1.671-1.691v-2.917zm3.886 0h-.144c-.272 0-.372-.017-.488-.079-.172-.091-.267-.267-.267-.488s.094-.397.267-.488c.116-.063.216-.079.488-.079h.144v-.789c0-.358.017-.499.094-.658.106-.216.333-.352.628-.352s.522.136.627.352c.078.159.094.301.094.658v.789h.433c.272 0 .372.017.489.079.172.091.266.267.266.488s-.094.397-.266.488c-.117.062-.216.079-.489.079h-.433v2.838c0 .278.1.499.466.522.184.011.311.028.433.091.178.091.289.261.289.528 0 .261-.117.437-.289.528-.128.068-.316.102-.594.102h-.078c-1.199 0-1.671-.829-1.671-1.691v-2.917zm6.746.46c-.156-.352-.483-.607-.972-.607-.483 0-.816.255-.966.607a1.533 1.533 0 0 0-.128.641h2.193c-.011-.255-.033-.426-.128-.641zm-2.065 1.651c0 .766.439 1.317 1.277 1.317.361 0 .716-.102 1-.318.227-.165.366-.221.538-.221.278 0 .583.278.583.619 0 .278-.233.533-.566.76-.394.272-.938.409-1.577.409-1.372 0-2.677-.636-2.677-3.025 0-1.93 1.016-3.025 2.516-3.025 1.56 0 2.465 1.146 2.515 2.639.006.227-.022.482-.194.658-.183.187-.416.187-.633.187h-2.782zm7.523-3.484c.45 0 .738.096.999.272.216.148.366.363.366.619 0 .216-.089.409-.216.539s-.302.204-.483.204c-.144 0-.3-.051-.494-.153a1.179 1.179 0 0 0-.55-.153c-.483 0-.961.34-.961 1.089v2.599c0 .358-.017.499-.094.658-.106.216-.333.352-.627.352s-.522-.136-.628-.352c-.078-.159-.094-.301-.094-.658v-3.99c0-.38.017-.494.106-.664.105-.204.35-.341.622-.341.194 0 .35.063.461.17.117.108.184.233.217.448a1.85 1.85 0 0 1 1.377-.641z" style="fill:var(--color4, #000)"/>
      <path fill="#636363" d="M28.986 11.084a.798.798 0 0 0-.491.14c-.197.129-.343.374-.412.508l-1.908 3.713-1.908-3.714c-.07-.134-.215-.379-.411-.507a.805.805 0 0 0-.492-.14.759.759 0 0 0-.562.232c-.208.212-.25.466-.25.805V18.2c0 .362.009.507.112.717.132.25.408.405.721.405s.59-.155.722-.406c.102-.209.111-.354.111-.716v-3.37l1.162 2.34c.184.372.373.587.794.587s.609-.215.794-.587l1.162-2.34v3.37c0 .362.009.507.112.717.132.25.408.405.721.405s.59-.155.722-.406c.102-.209.111-.354.111-.716v-6.079c0-.34-.042-.593-.25-.805a.759.759 0 0 0-.562-.232zm6.284 2.153c-.307 0-.56.144-.678.384-.085.174-.1.33-.1.682v2.592c0 .924-.687.996-.898.996-.208 0-.886-.072-.886-.996v-2.591c0-.352-.015-.508-.1-.682-.118-.241-.371-.384-.678-.384s-.56.143-.678.384c-.085.174-.1.33-.1.682v2.795c0 .769.18 1.281.602 1.712.344.351.828.537 1.4.537a2.02 2.02 0 0 0 1.407-.558.701.701 0 0 0 .705.536c.291 0 .555-.146.672-.371.098-.188.112-.316.112-.689v-3.961c0-.352-.015-.508-.1-.682-.118-.241-.371-.384-.678-.384zm4.421 1.433c.238 0 .409.063.653.241.213.159.352.215.532.215a.694.694 0 0 0 .486-.211.738.738 0 0 0 .221-.523c0-.417-.395-.711-.727-.884-.347-.207-.693-.295-1.154-.295-.489 0-1.191.108-1.76.623-.581.526-.876 1.346-.876 2.437s.294 1.914.872 2.443c.568.52 1.267.629 1.753.629.449 0 .798-.087 1.165-.289.489-.275.726-.566.726-.889a.728.728 0 0 0-.221-.522.693.693 0 0 0-.486-.217c-.195 0-.348.087-.533.226-.228.172-.404.236-.652.236a.913.913 0 0 1-.762-.359c-.212-.271-.306-.658-.306-1.257 0-.591.094-.974.306-1.244a.953.953 0 0 1 .763-.36zm7.077-.919c-.344-.351-.828-.537-1.4-.537-.537 0-.956.162-1.339.522V12.15c0-.352-.015-.508-.1-.682-.118-.24-.371-.384-.678-.384s-.56.144-.678.384c-.085.174-.1.33-.1.682v6.107c0 .352.015.508.1.682.118.241.371.384.678.384s.56-.144.678-.384c.085-.174.1-.33.1-.682v-2.592c0-.924.687-.996.898-.996.208 0 .886.072.886.996v2.592c0 .352.015.508.1.682.118.241.371.384.678.384s.56-.144.678-.384c.085-.174.1-.33.1-.682v-2.794c0-.769-.18-1.281-.602-1.712z" style="fill:var(--color11, #636363)"/>
    </symbol>
    <symbol id="icon-ecopayz" viewBox="0 0 56 32">
      <path d="M9.685 9.4C4.346 9.4.034 11.92.034 15.047c0 1.323.783 2.536 2.116 3.517a4.208 4.208 0 0 1-1.016-2.636c0-3.232 4.233-5.858 9.429-5.858 3.349-.016 6.296 1.065 7.989 2.716-1.519-1.993-4.926-3.385-8.868-3.385z" style="fill:var(--color4, #000)"/>
      <path fill="#444" d="M8.833 16.64c.334.019.665-.068.947-.248a.883.883 0 0 0 .418-.791 2.879 2.879 0 0 0-.64-1.782 3.939 3.939 0 0 0-1.587-1.255 3.99 3.99 0 0 0-1.534-.285 3.79 3.79 0 0 0-2.836 1.123 3.658 3.658 0 0 0-1.095 2.668 3.471 3.471 0 0 0 1.148 2.637 4.042 4.042 0 0 0 2.868 1.055 5.97 5.97 0 0 0 1.767-.258 2.884 2.884 0 0 0 1.466-.87c.157-.173.248-.395.259-.627 0-.527-.307-.817-.921-.817a4.28 4.28 0 0 0-1.058.343 3.831 3.831 0 0 1-1.423.348 2.092 2.092 0 0 1-1.19-.327 1.224 1.224 0 0 1-.561-.939l3.974.026zm-3.444-2.283c.3-.238.676-.359 1.058-.343.363-.003.716.122.995.353a1.252 1.252 0 0 1 .471.897H4.86c.065-.355.252-.675.529-.907zM11.49 18.696a3.772 3.772 0 0 0 2.831 1.081c.6.018 1.196-.089 1.751-.316.651-.29.974-.654.974-1.055a.903.903 0 0 0-.548-.848.873.873 0 0 0-.357-.064 2.06 2.06 0 0 0-.688.158c-.29.103-.597.155-.905.153a1.653 1.653 0 0 1-1.291-.527 1.844 1.844 0 0 1-.402-1.25 1.924 1.924 0 0 1 .386-1.234 1.485 1.485 0 0 1 1.222-.527 2.58 2.58 0 0 1 .915.132c.226.093.465.148.709.163a.956.956 0 0 0 .688-.263.825.825 0 0 0 .275-.633c0-.49-.317-.854-.947-1.097a4.778 4.778 0 0 0-1.651-.258 4.002 4.002 0 0 0-2.899 1.055 3.57 3.57 0 0 0-1.09 2.695 3.586 3.586 0 0 0 1.032 2.636h-.005zM18.177 18.708a3.9 3.9 0 0 0 2.857 1.108 3.878 3.878 0 0 0 2.857-1.091 3.613 3.613 0 0 0 1.058-2.668 3.628 3.628 0 0 0-1.059-2.689 3.808 3.808 0 0 0-2.841-1.054 3.872 3.872 0 0 0-2.835 1.086 3.625 3.625 0 0 0-1.096 2.683 3.591 3.591 0 0 0 1.058 2.637v-.011zm1.682-3.876a1.481 1.481 0 0 1 1.169-.566 1.491 1.491 0 0 1 1.169.566c.254.347.384.768.37 1.197.017.43-.107.854-.355 1.207a1.376 1.376 0 0 1-1.18.601c-.227.009-.452-.039-.656-.139s-.378-.25-.508-.436a1.937 1.937 0 0 1-.37-1.208 1.984 1.984 0 0 1 .36-1.213v-.011z" style="fill:var(--color12, #444)"/>
      <path d="M28.214 12.105h1.058c1.09 0 1.635.411 1.635 1.234 0 .838-.529 1.26-1.635 1.26h-1.058v-2.494zm0 6.08v-1.619h1.587a3.943 3.943 0 0 0 2.688-.838 2.974 2.974 0 0 0 .978-2.378 2.889 2.889 0 0 0-1.058-2.405 4.242 4.242 0 0 0-2.757-.823h-2.175a1.916 1.916 0 0 0-1.291.332 1.589 1.589 0 0 0-.36 1.181v6.544c0 1.018.397 1.529 1.19 1.529s1.196-.527 1.196-1.524zM36.368 14.873a1.344 1.344 0 0 1 1.127-.527 1.314 1.314 0 0 1 1.127.527c.239.337.36.743.344 1.155a1.92 1.92 0 0 1-.344 1.171 1.306 1.306 0 0 1-1.127.527 1.357 1.357 0 0 1-1.143-.527 1.894 1.894 0 0 1-.339-1.171 1.834 1.834 0 0 1 .37-1.155h-.016zm3.804 4.836c.767 0 1.148-.527 1.148-1.534v-4.218c0-1.018-.381-1.524-1.148-1.524a1.244 1.244 0 0 0-1.106.659 2.422 2.422 0 0 0-1.868-.76 3.355 3.355 0 0 0-2.645 1.17 3.744 3.744 0 0 0-.979 2.563 3.74 3.74 0 0 0 .937 2.536 3.283 3.283 0 0 0 2.582 1.17 2.497 2.497 0 0 0 1.952-.791 1.147 1.147 0 0 0 1.105.738l.021-.011zM46.7 13.249l-1.418 3.354-1.323-3.164c-.09-.258-.22-.5-.386-.717a1.07 1.07 0 0 0-.788-.295c-.3-.009-.591.096-.815.295a.997.997 0 0 0-.323.743c.003.199.048.395.132.575l2.339 4.951-.958 1.888c-.116.22-.181.463-.19.712a.915.915 0 0 0 .318.733c.232.192.529.29.831.274.412 0 .751-.285 1.021-.844l3.572-7.609c.112-.227.175-.475.185-.728 0-.67-.381-1.002-1.148-1.002-.439 0-.778.274-1.021.833h-.026zM54.575 17.658h-2.291l3.08-3.591c.256-.246.422-.571.471-.923a.49.49 0 0 0-.36-.527 4.038 4.038 0 0 0-1.106-.111h-3.704c-.99 0-1.482.316-1.482.949s.487.965 1.466.965h1.995l-3.175 3.728c-.21.218-.332.505-.344.807 0 .438.408.654 1.217.654h4.233c.974 0 1.46-.322 1.46-.965 0-.659-.482-.986-1.445-.986h-.016z" style="fill:var(--color4, #000)"/>
    </symbol>
    <symbol id="icon-interac" viewBox="0 0 32 32">
      <path d="M20.55 13.96c0 .24.119.48.475.36s.594-.36.594-.84v-.6s-.238.12-.594.36c-.356.12-.475.36-.475.72zM14.847 12.999c-.356.12-.475.48-.475 1.08l1.069-.24v-.24c0-.48-.119-.72-.594-.6zM25.895 8.2l-.119.24h.119c.119 0 .119 0 .119-.12s0-.12-.119-.12z"/>
      <path d="M25.897 7.959c-.356 0-.594.24-.594.6s.238.6.594.6.594-.24.594-.6-.238-.6-.594-.6zm.119.96v-.24c0-.12 0-.12-.119-.12h-.119v.36h-.119v-.84h.238c.119 0 .238 0 .238.24 0 .12 0 .24-.119.24.119 0 .119 0 .119.12s0 .12-.119.24h.119-.119z"/>
      <path d="M25.885 4H6.064c-1.194 0-2.03.84-2.03 2.04v20.04c0 1.08.836 1.92 2.03 1.92h19.94c1.075 0 2.03-.84 2.03-2.04V6.04C27.915 4.84 27.079 4 25.885 4zM6.9 14.2l1.075-.24v.48s.358-.72 1.075-.84c.836-.24 1.194.36 1.194 1.08v3l-1.194.24v-2.88c0-.48-.239-.48-.478-.48-.239.12-.478.48-.478.96v1.92c-.119-.12-.478-.24-.716-.24-.119 0-.239 0-.478.12V14.2zm-.597 9.12c-.358.12-.836.24-.836.24h-.119c-.358 0-.716-.36-.716-.72 0-.12 0-.24.119-.36L6.303 22v1.32zm0-1.56c-.358.12-.836.24-.836.24h-.119c-.358 0-.716-.36-.716-.72 0-.12 0-.24.119-.36l1.552-.36v1.2zm0-1.68c-.358.12-.836.24-.836.24h-.119c-.358 0-.716-.36-.716-.72 0-.12 0-.24.119-.36l1.552-.36v1.2zm0-1.44-1.194.24v-6.72l1.194-.24v6.72zm4.537 5.4v2.64H8.691c-1.194 0-2.03-.96-2.03-2.04V18.4c0-.36.358-.72.716-.72.478 0 .716.36.716.72V22c0 .12.119.12.119.12.119 0 .119-.12.119-.12v-3l1.91 1.32c.239.24.478.48.478.84.119 0 .119 1.44.119 2.88zm2.269-10.44-.836.24V16c0 .96.239 1.2.239 1.2l-1.194.24s-.119-.24-.119-1.2v-2.16l-.597.12v-.84l.597-.12v-.96l1.194-.24V13l.836-.24v.84h-.119zm3.463.6-2.149.6c0 .72.119 1.08.597.96.358-.12.478-.36.478-.6v-.12l1.075-.24v.24c0 .36-.119 1.44-1.552 1.8-1.433.12-1.791-.72-1.791-1.92 0-.72.119-1.32.358-1.68.239-.48.716-.84 1.313-.96 1.313-.24 1.672.48 1.672 1.44v.48zm2.746-1.92s-.239 0-.597.12-.597.48-.597 1.08v2.28L16.93 16v-4.2l1.075-.24v.6s.239-.72.955-.84h.358v.96zm2.627 2.64s-.119-.24-.119-.36c0 0-.239.6-1.075.72-.836.24-1.313-.36-1.313-1.08 0-.96.597-1.32 1.433-1.68.716-.36.836-.48.836-.72s-.119-.48-.478-.36c-.358.12-.478.36-.478.6v.24l-1.075.24s0-.36.119-.6c.119-.6.716-.96 1.552-1.2 1.194-.24 1.552.24 1.552 1.08v1.8c0 .96.119 1.08.119 1.08l-1.075.24zm3.224-.72c-1.433.36-1.672-.48-1.791-1.8 0-1.32.239-2.28 1.672-2.64.955-.24 1.194 0 1.433.24s.239.6.239.96v.12l-1.075.24v-.12c0-.48-.119-.72-.478-.6-.478.12-.597.48-.597 1.32v.36c0 .84.119 1.2.597 1.08s.478-.48.478-.84v-.24l1.075-.24v.12c0 1.2-.597 1.8-1.552 2.04zm.836-4.92c-.358 0-.716-.36-.716-.72s.358-.72.716-.72.716.36.716.72c0 .48-.358.72-.716.72z"/>
    </symbol>
    <symbol id="icon-logo" viewBox="0 0 50 32">
      <path fill="#4c4c68" d="M13.826 20.803c-.646.654-.969 1.61-.969 2.866 0 1.035.211 1.853.633 2.455s.992.902 1.709.902a2 2 0 0 0 1.131-.332c.341-.221.628-.54.862-.956h.054l-.04 1.088h1.804v-6.7c-.915-.212-1.714-.319-2.395-.319-1.213 0-2.141.332-2.788.995zm3.351 2.986c-.234.487-.484.875-.753 1.168s-.543.438-.82.438c-.287 0-.511-.159-.673-.477-.162-.327-.242-.769-.242-1.327 0-.708.135-1.243.404-1.605.279-.363.686-.544 1.224-.544.287 0 .574.04.862.12v2.228h-.001zM27.971 17.141h-.438a.863.863 0 1 0 0 1.726h.438a.863.863 0 1 0 0-1.726zM10.265 25.408c-.637 0-1.131-.168-1.48-.504-.341-.336-.511-.814-.511-1.433 0-.61.166-1.101.498-1.473.341-.371.79-.558 1.346-.558.215 0 .444.031.686.093.251.053.48.128.686.226l.364-1.58c-.197-.098-.48-.182-.848-.252a4.829 4.829 0 0 0-1.036-.12c-.708 0-1.333.159-1.871.477-.538.31-.955.752-1.251 1.327-.296.566-.444 1.221-.444 1.964 0 1.097.314 1.946.942 2.548.637.602 1.53.902 2.679.902.673 0 1.301-.115 1.884-.345l-.282-1.513c-.485.159-.937.24-1.36.24zM34.112 19.808c-.503 0-.942.111-1.319.332s-.708.566-.996 1.035v-1.18H29.94v6.834h1.897v-3.968c.17-.407.417-.743.74-1.008s.663-.398 1.022-.398c.305 0 .548.101.727.305.179.194.269.469.269.823v4.246h1.897V22.29c0-.779-.211-1.384-.633-1.818-.421-.442-1.004-.664-1.749-.664zM44.517 21.506c-.287-.54-.7-.956-1.238-1.248-.529-.3-1.144-.452-1.844-.452s-1.319.15-1.857.452c-.529.3-.942.725-1.238 1.274-.287.54-.431 1.168-.431 1.885s.148 1.349.444 1.897c.296.54.708.96 1.238 1.261.538.3 1.157.452 1.857.452.691 0 1.301-.15 1.83-.452.538-.31.951-.739 1.238-1.287.296-.558.444-1.194.444-1.911.002-.706-.147-1.33-.443-1.87zm-1.924 3.357c-.287.363-.673.544-1.157.544s-.875-.181-1.171-.544c-.287-.371-.431-.858-.431-1.46s.144-1.079.431-1.433c.296-.363.686-.544 1.171-.544s.87.182 1.157.544c.296.354.444.831.444 1.433s-.148 1.088-.444 1.46zM24.641 23.152a7.951 7.951 0 0 0-.942-.438 20.523 20.523 0 0 0-.471-.172c-.341-.115-.583-.216-.727-.305s-.215-.221-.215-.398c0-.186.085-.327.256-.425.179-.098.417-.146.713-.146.287 0 .592.049.915.146.332.088.628.208.888.359l.256-1.579c-.735-.256-1.435-.385-2.099-.385-.843 0-1.53.194-2.059.584-.521.381-.78.916-.78 1.605 0 .433.099.783.296 1.049s.417.464.66.597c.242.123.556.256.942.398l.364.133c.404.142.678.261.821.358a.424.424 0 0 1 .215.385c0 .212-.103.376-.309.491-.207.106-.462.159-.767.159-.323 0-.668-.057-1.036-.172s-.705-.265-1.009-.452l-.175 1.592c.287.15.633.27 1.036.359.413.088.839.133 1.278.133.87 0 1.57-.181 2.099-.544s.794-.907.794-1.632c0-.433-.094-.787-.282-1.062a1.945 1.945 0 0 0-.661-.639zM28.585 19.994h-1.9v1.605h.002v5.229h1.898v-6.834z" style="fill:var(--color13, #4c4c68)"/>
      <path fill="#f98323" d="M30.733 6.641c-.615 0-1.16.129-1.634.385-.473.245-.894.636-1.26 1.173V4.356c0-.682-.561-1.234-1.251-1.234s-1.251.553-1.251 1.234v11.546h2.503V10.44c.249-.49.568-.881.959-1.173.402-.304.822-.455 1.26-.455.402 0 .723.134.959.402.237.256.355.619.355 1.086v5.602h2.503V9.914c0-1.027-.279-1.826-.835-2.399-.556-.584-1.325-.875-2.308-.875z" style="fill:var(--color14, #f98323)"/>
      <path d="M9.329 6.641a3.53 3.53 0 0 0-1.182.193c.243-.425.216-.794.287-1.257.084-.54-.517-1.027-.827-1.202.056.058.184.248.254.534s-.107.434-.206.473c-.026-.126-.222-.621-.795-1.588C6.144 2.586 4.85 1.585 3.533.949 2.48.438.859.164.179.089c.2.12.747.481 1.337.964.736.604 1.251 1.595 1.579 2.639.263.837.131 1.832.032 2.225l1.886 1.437c-.162.021-.798 0-1.08-.085-.411-.123-.782-.444-.925-.486.101.203.113 1.137.801 1.641s1.336.729 1.83 1.033c.247.243.575.669.575 1.763 0 .811-.185 2.675-.233 3.222.603-1.763.679-3.191.726-4.194.059-1.253-.312-2.469-1.068-4.334-.604-1.492-1.84-3.512-2.381-4.337.393.441 1.106 1.292 2.094 2.796.988 1.505 1.171 2.167 1.541 3.261.004-.009.009-.01.015-.006l.47 1.808c.085-.089.174-.169.265-.239.332-.269.687-.402 1.065-.402.461 0 .816.21 1.065.63.26.421.391 1.009.391 1.768 0 .922-.195 1.622-.586 2.101-.379.479-.935.717-1.669.717-.075 0-.148-.002-.222-.006a1.354 1.354 0 0 0-.363-.049c-.681 0-1.233.49-1.233 1.094 0 .591.528 1.07 1.186 1.092-.011.017.049.022.364.022 1.621 0 2.864-.438 3.728-1.313s1.296-2.142 1.296-3.799c0-1.388-.296-2.468-.888-3.239-.592-.779-1.408-1.171-2.45-1.171z" style="fill:var(--color4, #000)"/>
      <path fill="#f98323" d="M23.08 9.014a3.924 3.924 0 0 0-1.634-1.646c-.698-.396-1.509-.596-2.433-.596s-1.74.198-2.45.596a4.17 4.17 0 0 0-1.634 1.68c-.021.04-.039.081-.059.123l.006.004a1.217 1.217 0 0 0-.178.632c0 .682.561 1.235 1.253 1.235a1.25 1.25 0 0 0 1.198-.876c.085-.198.19-.379.319-.539.391-.479.905-.717 1.545-.717.639 0 1.148.24 1.526.717.164.196.291.421.386.674h.009c.194.436.634.742 1.148.742.692 0 1.253-.553 1.253-1.235 0-.221-.059-.428-.163-.607-.03-.062-.06-.125-.094-.186zM43.998 9.014a3.93 3.93 0 0 0-1.634-1.646c-.698-.396-1.509-.596-2.433-.596s-1.74.198-2.45.596a4.17 4.17 0 0 0-1.634 1.68c-.021.04-.039.081-.059.123l.006.004a1.217 1.217 0 0 0-.178.632c0 .682.561 1.235 1.253 1.235a1.25 1.25 0 0 0 1.198-.876c.085-.198.19-.379.319-.539.391-.479.905-.717 1.545-.717.639 0 1.148.24 1.526.717.164.196.291.421.386.674h.009c.193.436.634.742 1.148.742.692 0 1.253-.553 1.253-1.235 0-.221-.059-.428-.163-.607a2.947 2.947 0 0 0-.094-.186zM22.064 12.038c-.504 0-.938.298-1.132.723l-.007-.004a2.492 2.492 0 0 1-.382.686c-.379.479-.888.717-1.526.717s-1.154-.239-1.545-.717a2.484 2.484 0 0 1-.332-.585 1.25 1.25 0 0 0-1.187-.842c-.692 0-1.253.553-1.253 1.235 0 .218.058.422.158.599l-.002.001c.031.063.06.126.092.187a4.19 4.19 0 0 0 1.634 1.663c.71.396 1.526.596 2.45.596.911 0 1.716-.198 2.414-.596a4.137 4.137 0 0 0 1.634-1.698c.031-.057.057-.116.085-.174l-.001-.001c.09-.17.142-.362.142-.567a1.231 1.231 0 0 0-1.24-1.224zM42.982 12.038c-.504 0-.938.298-1.132.723l-.007-.004a2.492 2.492 0 0 1-.382.686c-.379.479-.888.717-1.526.717s-1.154-.239-1.545-.717a2.484 2.484 0 0 1-.332-.585 1.25 1.25 0 0 0-1.187-.842c-.692 0-1.253.553-1.253 1.235 0 .218.058.422.158.599l-.002.001c.031.063.06.126.092.187a4.19 4.19 0 0 0 1.634 1.663c.71.396 1.526.596 2.45.596.911 0 1.716-.198 2.414-.596a4.137 4.137 0 0 0 1.634-1.698c.031-.057.057-.116.085-.174l-.001-.001c.09-.17.142-.362.142-.567a1.231 1.231 0 0 0-1.24-1.224z" style="fill:var(--color14, #f98323)"/>
    </symbol>
    <symbol id="icon-maestro" viewBox="0 0 40 32">
      <path fill="#4d4d4d" d="M17.27 16.059c.119-.772.535-1.307 1.367-1.188.594.119.713.594.654 1.188H17.27zm8.143-1.069.297-1.307h-.119c-1.07-.178-2.972-.297-3.804.535-.416.535-.535 1.485-.238 2.139.357.535.832.713 1.486.95.832.356.654 1.069-.119 1.188-.773.059-1.248-.059-2.021-.238l-.238 1.248c.892.297 2.318.356 3.21.178 1.248-.416 2.021-1.782 1.189-2.97-.535-.594-1.07-.475-1.664-.832-.297-.297-.357-.594 0-.832.594-.356 1.308-.119 1.961-.059h.059zM28.028 4c-6.181 0-11.293 4.693-11.947 10.693.059-.059.119-.119.119-.178l.357-.356c.654-.475 1.308-.594 2.08-.594 2.259.178 2.437 1.545 2.08 3.564h-3.685v.119c-.059 1.545 2.437 1.426 3.507.832l-.238 1.366c-1.129.594-2.794.416-3.863-.238A11.998 11.998 0 0 0 28.028 28c6.657 0 12.006-5.347 12.006-12S34.685 4 28.028 4zm.713 15.743 1.07-6.059h1.605l-.119.951c.475-.653 1.07-1.129 1.902-1.01v.059h.059l-.119.119v.059l-.119.238c-.119.178-.178.416-.238.653l-.059.178v.119l-.059.119v.059h-.059c-.535-.059-1.189.119-1.486.594-.119.238-.178.475-.238.713l-.535 3.208h-1.605zm8.916-5.525c1.189.95 1.308 2.733.654 4.04-1.07 2.139-4.636 2.198-5.646 0-.594-1.604-.059-3.683 1.605-4.396 1.07-.416 2.437-.356 3.388.356zm-3.21 3.267c-.119-.594 0-1.188.238-1.723.535-.95 1.783-1.188 2.08 0 .059.594-.059 1.188-.238 1.723-.535.95-1.783 1.129-2.08 0zm-7.727-5.168h1.605l-.297 1.366h1.01L28.8 14.99l-1.01-.059-.535 3.149c0 .297.059.356.297.416.297.059.654.059.892-.059h.059l-.178 1.069c-.475.297-1.308.297-1.843.238-.773-.178-.951-.475-.832-1.248l1.07-6.178zm11.353 7.129h.475v.059h-.178v.416h-.119v-.416h-.178v-.059zm.535 0h.119l.178.356.178-.356h.119v.475h-.119v-.356l-.119.356h-.119l-.119-.356v.356h-.119v-.475z" style="fill:var(--color15, #4d4d4d)"/>
      <path d="M12.041 4C5.384 4 .035 9.347.035 16s5.349 12 12.006 12c3.447 0 6.597-1.485 8.797-3.802h-1.664l-.535-.653h2.734c.238-.238.416-.535.594-.772h-3.863l-.416-.713h4.695c.178-.238.297-.535.476-.832h-5.587l-.357-.653h6.241c.119-.238.178-.535.297-.832h-.416a2.577 2.577 0 0 1-.951 0h-2.794a4.422 4.422 0 0 1-1.248 0h-1.367l-.178-.475c-.238-.178-.475-.356-.654-.594-.832-1.188-.535-3.089.357-4.158l.238-.238h-.357l.119-.653h1.961c.178-.059.297-.059.475-.059.119 0 .178.059.238.059h4.339c.238-.059.416-.059.594-.059l-.178-.713h-7.192l.178-.653h6.835c-.119-.297-.178-.535-.297-.772h-6.3l.357-.653h5.646c-.119-.297-.297-.535-.416-.772h-4.874l.475-.713h3.982l-.535-.713h-2.912l.535-.713h1.783a12.022 12.022 0 0 0-8.856-3.861zm8.38 10.277h1.367c-.178.178-.297.475-.357.713h-.654a1.347 1.347 0 0 0-.357-.713zm3.566.594v.119h-.535c.178-.059.357-.119.535-.119zm-5.052.119h-1.07c.178-.119.475-.178.773-.119a.45.45 0 0 1 .297.119zm-1.605.654h1.961v.416H17.27c0-.119.059-.297.059-.416zm3.507 0h.535c0 .238.059.475.178.713h-.713v-.713zm2.378 0h.832v.475c-.178-.059-.416-.119-.654-.238a.814.814 0 0 1-.178-.238zm-2.497 1.366h1.664c.178.119.416.178.654.297s.416.238.476.416h-6.419c-.059-.178-.059-.297-.059-.475v-.119h3.685v-.119zm-2.793 1.366h1.724c-.535.119-1.248.178-1.724 0zm2.555 0h.357l-.119.713h-.357l.119-.713zm.951 0h1.902c-.119.059-.238.119-.416.119-.535.059-.951 0-1.486-.119zm-6.597.119-.238 1.248H13.17l.059-.119v-.297l.059-.059v-.178l-.059.119c-.773.713-2.08.891-2.972.238-1.01-.951-.535-2.436.535-3.149l.178-.059c.832-.356 1.783-.297 2.675-.297l.059-.059c.119-.535-.178-.891-.713-.951-.535 0-1.961.059-2.377.297l.416-1.307c.713-.356 2.021-.356 2.853-.238.951.238 1.724.713 1.545 1.842l-.594 2.97zm-1.367-1.485c0-.059 0-.059-.119-.059-.475-.059-1.129.059-1.545.356-.416.356-.535 1.069.059 1.188.535.059 1.07-.059 1.367-.535.178-.297.178-.594.238-.95zm-10.58 2.733H1.342l1.308-7.426h2.734l.238 4.455 1.843-4.455h2.794l-1.308 7.426H7.406l.951-5.525h-.059l-2.259 5.525H4.256c-.119-1.842-.178-3.683-.297-5.525H3.9l-1.01 5.525z" style="fill:var(--color4, #000)"/>
      <path fill="#fefefe" d="M38.608 19.445h.119l.178.357.178-.357h.119v.475h-.119v-.357l-.119.357h-.119l-.119-.357v.357h-.119v-.475z" style="fill:var(--color16, #fefefe)"/>
    </symbol>
    <symbol id="icon-neosurf" viewBox="0 0 48 32">
      <path d="M2.541 16.596v.921c0 1.282-.005 2.564.004 3.846.002.292-.069.444-.386.435a42.013 42.013 0 0 0-1.775-.002c-.262.004-.35-.108-.349-.375.006-2.862.005-5.724.002-8.586-.001-.38.188-.65.447-.877.731-.639 1.98-.423 2.448.439.641 1.181 1.217 2.398 1.784 3.619.074.159.16.312.242.472.17-.079.098-.216.098-.316.006-1.267.004-2.534.004-3.801 0-.591.001-.591.593-.592.448 0 .897.029 1.342-.008.431-.036.574.095.566.563-.028 1.609-.011 3.219-.011 4.829 0 1.118.001 2.236-.001 3.354-.001.653-.323 1.165-.853 1.367-.566.216-1.127.047-1.552-.465-.246-.297-.423-.639-.594-.983-.639-1.283-1.274-2.568-1.911-3.853l-.098.015zM13.024 15.743a1.396 1.396 0 0 0-1.857.497c-.481.755-.452 1.836.068 2.566.45.632 1.285.807 2.023.42.45-.237.784-.597 1.039-1.045.392-.689.276-.602.935-.27.375.19.745.392 1.118.587.192.1.287.22.18.461-.907 2.036-2.721 3.4-5.125 2.958a3.237 3.237 0 0 1-1.743-.933c-1.189-1.211-1.774-2.668-1.32-4.379.475-1.787 1.632-2.949 3.426-3.254 1.295-.22 2.453.209 3.377 1.208.33.357.584.774.847 1.184.14.218.113.361-.104.515a244.745 244.745 0 0 0-3.333 2.406c-.266.196-.435.213-.607-.113a9.825 9.825 0 0 0-.65-1.055c-.183-.26-.12-.422.115-.58.435-.293.866-.592 1.294-.895.114-.08.266-.121.318-.28zM22.057 17.665c-.014-1.013-.516-1.604-1.349-1.59-.801.014-1.438.748-1.431 1.648.007.882.618 1.542 1.42 1.536.633-.005 1.478-.5 1.36-1.594zm-1.421 4.309c-1.873.238-4.049-1.865-4.03-4.342.018-2.281 1.815-4.344 4.094-4.318 2.451.029 4.094 2.153 4.053 4.504-.046 2.671-2.334 4.342-4.118 4.155zM31.037 16.385c0-.82.01-1.639-.005-2.459-.005-.291.094-.394.371-.388.62.013 1.241.016 1.861-.001.311-.009.388.122.386.423a391.95 391.95 0 0 0-.002 4.471c.002.481.27.805.667.843.384.038.713-.258.799-.719.011-.058.018-.118.02-.178.015-.401.037-.803.04-1.205.006-1.058.011-2.116-.002-3.174-.004-.336.093-.484.439-.472.591.021 1.183.013 1.775.002.295-.005.439.07.435.425-.017 1.565.045 3.132-.021 4.694-.086 2.033-1.449 3.419-3.277 3.329-.533-.026-1.064.003-1.571-.227-1.211-.55-1.899-1.713-1.935-3.174-.018-.73-.003-1.46-.003-2.19h.025zM43.384 17.036c0-1.355-.002-2.71.001-4.065.004-1.684 1.243-2.963 2.874-2.97.462-.002.923.015 1.384.001.265-.008.398.058.389.369-.018.64-.015 1.281-.001 1.921.006.261-.1.34-.333.332-.302-.01-.606-.003-.908 0-.176.001-.348.023-.476.167a.597.597 0 0 0-.133.581c.053.173.25.095.385.098.374.01.75.015 1.124.001.266-.01.351.101.345.369a45.125 45.125 0 0 0-.001 1.876c.005.271-.094.376-.355.367-.389-.013-.78.017-1.168-.009-.328-.023-.421.103-.418.432.013 1.578-.009 3.157.015 4.735.007.45-.109.606-.557.574-.588-.042-1.182-.023-1.773-.005-.291.009-.414-.075-.412-.397.012-1.459.005-2.918.005-4.378h.013zM26.7 21.792c-.461 0-.923-.014-1.384.005-.279.012-.392-.088-.386-.38.012-.566.012-1.132 0-1.697-.005-.268.092-.367.354-.361.605.014 1.211.004 1.817.004.101 0 .202.002.303-.003.152-.007.301-.056.344-.215.05-.185-.106-.253-.236-.32-.437-.227-.883-.438-1.31-.682-.97-.556-1.351-1.504-1.138-2.781.141-.847.988-1.653 1.946-1.784.946-.13 1.9-.04 2.851-.048.2-.002.288.1.288.3v1.787c.001.24-.13.293-.336.29-.562-.008-1.125-.002-1.687-.002-.176 0-.38-.01-.426.21-.048.228.161.291.313.363a12.69 12.69 0 0 1 1.527.833 2.36 2.36 0 0 1 1.023 2.501c-.262 1.124-1.007 1.819-2.047 1.934-.605.066-1.209.051-1.815.049zM40.843 14.455c.54-.663 1.102-.988 1.844-.932.29.022.414.103.405.419-.018.61-.014 1.221-.001 1.831.006.273-.067.4-.358.419-1.155.078-1.554.119-1.548 1.828.003 1.102-.013 2.204.01 3.305.008.383-.125.486-.474.474a37.133 37.133 0 0 0-1.946-.003c-.255.004-.359-.083-.359-.36.007-2.516.007-5.032 0-7.547-.001-.287.131-.358.369-.356.519.004 1.039.019 1.557-.006.382-.018.578.093.504.521-.015.086-.002.177-.002.409z"/>
    </symbol>
    <symbol id="icon-neteller" viewBox="0 0 56 32">
      <path d="M49.552 15.402c-.281.195-.749.293-1.31.293h-.562l.375-2.54h.468c.468 0 .842.098 1.123.195.187.195.374.391.374.977s-.187.879-.468 1.075zm-35.383 3.224H9.582l.281-1.759h2.902l.281-1.857h-2.808l.281-1.661h4.587l-.936 5.276zm37.911-6.742c-.749-.489-1.778-.684-3.089-.684h-3.464l-1.31 7.426H39.63l.281-1.759h2.715L43 15.01h-2.808l.374-1.661h2.808l.374-2.15h-5.804l-1.217 7.035h-2.153l1.311-7.035h-3.089l-1.217 7.035H29.52l1.217-7.035h-2.995l-1.31 7.426h-4.587l.281-1.759h2.715l.374-1.857h-2.808l.281-1.661h2.902l.374-2.15H7.898l-1.03 5.863-1.966-5.863H1.719L.034 20.774h2.995l1.03-6.058 1.966 6.058H16.79l1.311-7.426h1.685l-1.311 7.426h28.269l.842-4.69 1.311 4.69h2.995l-1.404-3.811.374-.098c.655-.195 1.217-.489 1.591-.977s.562-1.173.562-1.954c0-.879-.281-1.563-.936-2.052zM54.666 17.942c.756 0 1.369.64 1.369 1.429s-.613 1.429-1.369 1.429-1.369-.64-1.369-1.429.613-1.429 1.369-1.429zm0 .293c-.601 0-1.088.509-1.088 1.136s.487 1.136 1.088 1.136c.601 0 1.088-.508 1.088-1.136s-.487-1.136-1.088-1.136zm.198.388c.094 0 .393.141.393.413a.444.444 0 0 1-.311.443c.061 0 .119.122.187.219l.281.391h-.281l-.368-.577-.004-.006-.002-.003h-.468v.616h-.187v-1.495h.76zm-.021.196h-.552v.489h.552c.094 0 .195-.112.195-.271s-.156-.217-.195-.217z"/>
    </symbol>
    <symbol id="icon-netGame" viewBox="0 0 36 32">
      <path d="M5.815 31.908h.278v-1.643L7.744 32v-2.291h-.278v1.627l-1.651-1.735v2.306zm-1.905 0h1.18v-.255h-.91v-.833h.879v-.255H4.18v-.617h.91v-.255H3.91v2.214zm5.746-1.952h-.524v1.951h-.278v-1.951H8.33v-.255h1.319v.255h.008zm.633 1.952h1.18v-.255h-.91v-.833h.879v-.255h-.879v-.617h.91v-.255h-1.18v2.214zm3.247-1.574a.604.604 0 0 1-.532.617l.694.956h-.332l-.648-.933h-.116v.933h-.278v-2.206h.332c.193 0 .409 0 .578.1a.597.597 0 0 1 .301.532zm-.856-.385h-.069v.794h.085c.278 0 .586-.054.586-.401 0-.339-.324-.393-.602-.393zm2.244.007h.524v-.255h-1.319v.255h.524v1.951h.278l-.008-1.951zm2.807 1.952-.255-.555h-1.01l-.255.555h-.293l1.049-2.298 1.049 2.298h-.285zm-.755-1.689-.393.895h.787l-.393-.895zm1.912-.509h-.278v2.206h.278V29.71zm.987 2.198h-.278v-2.306l1.651 1.735V29.71h.278v2.291l-1.65-1.735v1.643zm3.517.046.663-1.504h.008l.254 1.458h.285l-.447-2.298-.756 1.735-.756-1.735-.447 2.298h.285l.255-1.458h.008l.648 1.504zm3.186-.046h-1.18v-2.206h1.18v.255h-.91v.617h.887v.255h-.879v.833h.91l-.008.247zm.756 0h.278v-1.643L29.262 32v-2.291h-.278v1.627l-1.65-1.735v2.306zm3.848-1.952h-.524v1.951h-.278v-1.951h-.525v-.255h1.327v.255z" style="fill:var(--color4, #000)"/>
      <path fill="#060707" d="M.224 26.763H.88v-3.918l3.949 4.134v-5.476h-.656v3.887L.224 21.256v5.507zm5.753 0H8.8v-.602H6.633v-1.99h2.106v-.602H6.633v-1.473H8.8v-.602H5.977v5.268zm6.857-4.659h-1.249v4.658h-.656v-4.658H9.68v-.602h3.155v.602zm3.671 2.006v.602h1.357c-.031.856-.91 1.566-1.72 1.566-1.134 0-2.044-1.049-2.044-2.152 0-1.18.918-2.137 2.098-2.137a2.109 2.109 0 0 1 1.651.856l.463-.44a2.735 2.735 0 0 0-3.849-.409 2.73 2.73 0 0 0-1.018 2.152c0 1.458 1.188 2.73 2.661 2.73s2.491-1.111 2.491-2.553v-.208l-2.09-.008zm7.057 2.653-.602-1.319h-2.414l-.602 1.319h-.702l2.514-5.484 2.514 5.484h-.71zm-1.805-4.049-.933 2.129h1.866l-.933-2.129zm6.117 4.157 1.573-3.586h.015l.617 3.471h.679l-1.072-5.484-1.805 4.142-1.805-4.142-1.072 5.484h.679l.617-3.471h.015l1.558 3.586zm6.987-.108h-2.823v-5.26h2.823v.602h-2.167v1.473H34.8v.602h-2.106v1.99h2.167v.594z" style="fill:var(--color17, #060707)"/>
      <path fill="#73c15d" d="m17.701 15.21 3.586 3.625h-7.165l3.579-3.625z" style="fill:var(--color18, #73c15d)"/>
      <path fill="#34b778" d="M17.701 15.21v3.625h-3.586l3.586-3.625z" style="fill:var(--color19, #34b778)"/>
      <path fill="#73c15d" d="m23.747 9.001 4.813 4.867-4.813 4.867-4.813-4.867 4.813-4.867z" style="fill:var(--color18, #73c15d)"/>
      <path fill="#27b575" d="M23.747 13.867h4.813l-4.813 4.867-4.813-4.867h4.813z" style="fill:var(--color20, #27b575)"/>
      <path fill="#34b778" d="M23.747 9.001v9.741l-4.813-4.867 4.813-4.874z" style="fill:var(--color19, #34b778)"/>
      <path fill="#00926a" d="M21.495 13.867h2.26v4.867l-4.813-4.867h2.553z" style="fill:var(--color21, #00926a)"/>
      <path fill="#fff" d="M22.559 13.867a2.19 2.19 0 0 0 1.188-1.188c.224.54.648.964 1.188 1.188a1.564 1.564 0 0 0-.71.478 2.412 2.412 0 0 0-.478.71s-.062-.239-.416-.655a1.808 1.808 0 0 0-.771-.532z" style="fill:var(--color2, #fff)"/>
      <path fill="#010101" d="m23.747 10.659 3.209 3.209-3.209 3.208-3.209-3.208 3.209-3.209zm0 1.195-2.021 2.021 2.021 2.021 2.021-2.021-2.021-2.021z" style="fill:var(--color22, #010101)"/>
      <path fill="#73c15d" d="m11.338 9.001 4.813 4.867-4.813 4.867-4.813-4.867 4.813-4.867z" style="fill:var(--color18, #73c15d)"/>
      <path fill="#27b575" d="M11.338 13.867h4.813l-4.813 4.867-4.813-4.867h4.813z" style="fill:var(--color20, #27b575)"/>
      <path fill="#34b778" d="M11.338 9.001v9.741l-4.813-4.867 4.813-4.874z" style="fill:var(--color19, #34b778)"/>
      <path fill="#00926a" d="M9.078 13.867h2.26v4.867l-4.813-4.867h2.553z" style="fill:var(--color21, #00926a)"/>
      <path fill="#fff" d="M10.15 13.867a2.19 2.19 0 0 0 1.188-1.188c.224.54.648.964 1.188 1.188a1.564 1.564 0 0 0-.71.478 2.412 2.412 0 0 0-.478.71s-.062-.239-.416-.655a1.85 1.85 0 0 0-.771-.532z" style="fill:var(--color2, #fff)"/>
      <path fill="#010101" d="m11.338 10.659 3.209 3.209-3.209 3.208-3.208-3.208 3.208-3.209zm0 1.195-2.021 2.021 2.021 2.021 2.021-2.021-2.021-2.021z" style="fill:var(--color22, #010101)"/>
      <path fill="#73c15d" d="m17.623 0 6.286 6.363-6.286 6.363-6.286-6.363L17.623 0z" style="fill:var(--color18, #73c15d)"/>
      <path fill="#27b575" d="M17.623 6.363h6.286l-6.286 6.363-6.286-6.363h6.286z" style="fill:var(--color20, #27b575)"/>
      <path fill="#34b778" d="M17.623 0v12.726l-6.286-6.363L17.623 0z" style="fill:var(--color19, #34b778)"/>
      <path fill="#00926a" d="M14.67 6.363h2.946v6.363L11.33 6.363h3.34z" style="fill:var(--color21, #00926a)"/>
      <path fill="#fff" d="M16.065 6.363a2.852 2.852 0 0 0 1.55-1.55 2.852 2.852 0 0 0 1.55 1.55s-.463.116-.933.617c-.463.501-.617.933-.617.933s-.077-.309-.54-.856a2.316 2.316 0 0 0-1.01-.694z" style="fill:var(--color2, #fff)"/>
      <path fill="#010101" d="m17.623 2.352 4.011 4.011-4.011 4.011-4.011-4.011 4.011-4.011zm0 1.188-2.815 2.815 2.815 2.815 2.815-2.815-2.815-2.815z" style="fill:var(--color22, #010101)"/>
    </symbol>
    <symbol id="icon-close" viewBox="0 0 32 32">
      <path stroke-linecap="round" stroke-linejoin="round" stroke-width="2.909" d="M24 8 8 24M8 8l16 16"/>
    </symbol>
    <symbol id="icon-menu" viewBox="0 0 32 32">
      <path stroke-linecap="round" stroke-linejoin="round" stroke-width="3" d="M4 16h24M4 8h24M4 24h24"/>
    </symbol>
    <symbol id="icon-chevron" viewBox="0 0 32 32">
      <path stroke-linecap="round" stroke-linejoin="round" stroke-width="3" d="m24 20-8-8-8 8"/>
    </symbol>
    <symbol id="icon-gaming" viewBox="0 0 56 32">
      <path fill="#016939" d="M0 .004h56.457v31.992H0z" style="fill:var(--color1, #016939)"/>
      <path fill="#fff" d="M19.707 9.763c.218 0 .407.188.407.38v8.619c0 .245-.136.489-.324.651-1.626 1.381-4.118 2.194-6.722 2.194-5.853 0-9.756-3.903-9.756-9.756s3.903-9.756 9.756-9.756c2.006 0 4.118.595 5.691 1.573.218.109.297.324.245.489l-1.355 3.982c-.083.188-.271.271-.516.218-1.11-.595-2.548-.948-3.903-.948-2.492 0-4.174 1.788-4.174 4.445s1.679 4.498 4.174 4.498c1.001 0 1.679-.188 1.98-.516v-1.573h-2.492c-.245 0-.406-.109-.433-.297l-.354-3.741c-.026-.271.136-.459.433-.459h7.343zm-4.336 5.665v.109zm21.356 4.148c.083.192-.026.38-.245.489-1.573.975-3.685 1.573-5.691 1.573-5.582 0-9.323-3.903-9.323-9.756s3.741-9.756 9.323-9.756c2.006 0 4.118.595 5.691 1.573.218.109.324.297.245.489l-1.788 3.768c-.109.245-.297.324-.516.218-1.001-.568-1.98-.76-3.143-.76-2.439 0-4.065 1.788-4.065 4.471s1.626 4.471 4.065 4.471c1.167 0 2.142-.188 3.143-.76.218-.109.407-.026.516.218l1.788 3.768zm10.08-17.047c3.549 0 5.909 2.115 5.909 5.284 0 1.95-.948 3.387-2.413 3.82 1.709.433 2.819 2.059 2.819 4.31 0 3.169-2.356 5.284-5.879 5.284H38.65a.388.388 0 0 1-.38-.38V2.935c0-.188.162-.406.38-.406h8.16zm-1.246 7.344c.813 0 1.355-.489 1.355-1.246s-.542-1.246-1.355-1.246h-1.709v2.492zm.486 6.503c.787 0 1.329-.516 1.329-1.302s-.542-1.302-1.329-1.302h-2.194v2.601h2.194zM12.993 29.094c.019.034 0 .083-.041.117-.365.23-.869.388-1.253.388-1.227 0-2.04-.787-2.04-1.965s.813-1.965 2.04-1.965c.388 0 .888.154 1.253.388.041.034.06.083.041.117l-.391.828c-.026.053-.075.075-.12.041a1.203 1.203 0 0 0-.651-.203c-.493 0-.821.32-.821.798s.324.798.82.798c.222 0 .482-.083.651-.203.049-.034.094-.015.12.041l.391.828zm3.523.015c.015.049 0 .075-.049.102-.361.237-.881.38-1.404.38-1.201 0-1.999-.787-1.999-1.957s.787-1.965 1.965-1.965 1.788.726 1.788 1.957c0 .102-.008.203-.026.305-.008.053-.041.083-.102.083h-2.175s0 .425.568.425c.346 0 .73-.083 1.039-.222.049-.019.087.008.102.053l.29.839zm-1.043-1.81c0-.297-.184-.493-.455-.493-.305 0-.508.196-.508.493zm3.873-1.539c.053 0 .094.041.094.094v.881a.093.093 0 0 1-.094.094h-.177c-.256 0-.489.117-.576.286v2.27a.107.107 0 0 1-.102.102h-1.193a.107.107 0 0 1-.102-.102v-3.523c0-.049.049-.094.102-.094h.764c.053 0 .087.049.109.102l.102.297c.203-.252.534-.407.896-.407zm2.684 0c.06 0 .102.041.102.094l-.075.659c-.008.053-.049.102-.102.102h-.433v2.77a.107.107 0 0 1-.102.102h-1.193a.107.107 0 0 1-.102-.102v-2.77h-.388a.095.095 0 0 1-.094-.094v-.659c0-.06.049-.102.094-.102h.388v-.738c0-.049.049-.087.102-.094l1.193-.117c.053-.008.102.049.102.094v.854zm.922 3.824c-.358 0-.595-.222-.595-.557s.237-.568.595-.568.595.23.595.568-.237.557-.595.557zM26.298 29c-.109.218-.433.358-.813.358-.99 0-1.649-.711-1.649-1.784 0-1.201.61-1.912 1.649-1.912.523 0 .937.143 1.11.388l.12-.188c.041-.06.102-.102.158-.102h.719c.06 0 .102.041.102.102v3.278c0 1.024-.93 1.709-2.081 1.709-.67 0-1.268-.154-1.6-.425-.041-.034-.053-.083-.041-.117l.346-.839c.019-.049.06-.068.102-.041.29.237.738.38 1.193.38.425 0 .685-.226.685-.61zm0-1.761s-.102-.305-.467-.305c-.339 0-.534.237-.534.644s.196.651.534.651c.365 0 .467-.305.467-.305zm5.107 1.855c.019.034 0 .083-.041.117-.365.23-.869.388-1.253.388-1.227 0-2.04-.787-2.04-1.965s.813-1.965 2.04-1.965c.388 0 .888.154 1.253.388.041.034.06.083.041.117l-.391.828c-.026.053-.075.075-.12.041a1.213 1.213 0 0 0-.651-.203c-.493 0-.82.32-.82.798s.324.798.82.798c.222 0 .482-.083.651-.203.049-.034.094-.015.12.041l.391.828zm1.784-3.173c.203-.162.508-.256.828-.256 1.073 0 1.788.787 1.788 1.957s-.719 1.965-1.788 1.965c-.455 0-.888-.177-1.144-.448l-.102.245c-.026.06-.06.102-.109.102h-.768a.107.107 0 0 1-.102-.102v-4.716c0-.049.049-.094.102-.094h1.193c.053 0 .102.049.102.094zm0 2.138a.574.574 0 0 0 .534.373c.373 0 .625-.324.625-.813s-.252-.787-.625-.787a.57.57 0 0 0-.534.373zm3.501 1.525c-.358 0-.595-.222-.595-.557s.237-.568.595-.568.595.23.595.568-.237.557-.595.557zm4.223-.49c.019.034 0 .083-.041.117-.365.23-.869.388-1.253.388-1.227 0-2.04-.787-2.04-1.965s.813-1.965 2.04-1.965c.388 0 .888.154 1.253.388.041.034.06.083.041.117l-.391.828c-.026.053-.075.075-.12.041a1.203 1.203 0 0 0-.651-.203c-.493 0-.821.32-.821.798s.324.798.821.798c.226 0 .482-.083.651-.203.049-.034.094-.015.12.041l.391.828zm5.947-3.334c.053 0 .087.049.068.094l-1.103 3.538c-.015.049-.068.094-.12.094h-1.05c-.053 0-.117-.049-.136-.094l-.523-1.803-.523 1.803a.164.164 0 0 1-.136.094h-1.05a.138.138 0 0 1-.12-.094l-1.103-3.538c-.019-.049.015-.094.068-.094h1.37c.06 0 .117.041.128.094l.354 1.483.365-1.483a.12.12 0 0 1 .12-.094h1.058c.102 0 .109.026.12.094l.365 1.483.354-1.483a.134.134 0 0 1 .128-.094h1.37z" style="fill:var(--color2, #fff)"/>
    </symbol>
    <symbol id="icon-minus" viewBox="0 0 32 32">
      <path d="M32 15.999a2.8 2.8 0 0 1-2.801 2.801H2.8c-.773 0-1.473-.313-1.98-.82S0 16.774 0 16a2.8 2.8 0 0 1 2.801-2.8h26.4A2.799 2.799 0 0 1 32 15.999z"/>
    </symbol>
    <symbol id="icon-plus" viewBox="0 0 32 32">
      <path stroke-width="2.667" d="M17.437 12.63v1.333H28.13a1.204 1.204 0 1 1 0 2.408H17.437v10.693a1.204 1.204 0 1 1-2.408 0V16.371H4.336a1.204 1.204 0 1 1 0-2.408h10.693V3.27a1.204 1.204 0 1 1 2.408 0v9.36z"/>
    </symbol>
    <symbol id="icon-arrow-sideward" viewBox="0 0 34 32">
      <path d="M1.582 28.095 23.429 6.248H6.458V.915h26.074v26.074H27.2V10.018L5.353 31.865l-3.771-3.771z"/>
    </symbol>
  </defs>
</svg>
